<svg width="48" height="48" viewBox="0 0 48 48" fill="none" xmlns="http://www.w3.org/2000/svg">
<path d="M24 0C37.2548 0 48 10.7452 48 24C48 37.2548 37.2548 48 24 48C10.7452 48 0 37.2548 0 24C0 10.7452 10.7452 0 24 0Z" fill="#6C5DD3"/>
<path d="M24 0C37.2548 0 48 10.7452 48 24C48 37.2548 37.2548 48 24 48C10.7452 48 0 37.2548 0 24C0 10.7452 10.7452 0 24 0Z" stroke="#E5E7EB"/>
<path d="M32 39H16V9H32V39Z" stroke="#E5E7EB"/>
<g clip-path="url(#clip0_262_20268)">
<path d="M31.5655 16.1751C31.8811 16.3939 32.0467 16.772 31.9873 17.1501L29.9873 30.1501C29.9405 30.4532 29.7561 30.7189 29.4873 30.8689C29.2186 31.0189 28.8967 31.0376 28.6123 30.9189L24.8748 29.3657L22.7342 31.6814C22.4561 31.9845 22.0186 32.0845 21.6342 31.9345C21.2498 31.7845 20.9998 31.4126 20.9998 31.0001V28.3876C20.9998 28.2626 21.0467 28.1439 21.1311 28.0532L26.3686 22.3376C26.5498 22.1407 26.5436 21.8376 26.3561 21.6501C26.1686 21.4626 25.8655 21.4501 25.6686 21.6282L19.3123 27.2751L16.553 25.8939C16.2217 25.7282 16.0092 25.397 15.9998 25.0282C15.9905 24.6595 16.1842 24.3157 16.503 24.1314L30.503 16.1314C30.8373 15.9407 31.2498 15.9595 31.5655 16.1751Z" fill="white"/>
</g>
<defs>
<clipPath id="clip0_262_20268">
<path d="M16 16H32V32H16V16Z" fill="white"/>
</clipPath>
</defs>
</svg>
