<svg width="90" height="90" viewBox="0 0 90 90" fill="none" xmlns="http://www.w3.org/2000/svg">
<path d="M45 0C69.8528 0 90 20.1472 90 45C90 69.8528 69.8528 90 45 90C20.1472 90 0 69.8528 0 45C0 20.1472 20.1472 0 45 0Z" fill="#6C5DD3"/>
<path d="M45 0C69.8528 0 90 20.1472 90 45C90 69.8528 69.8528 90 45 90C20.1472 90 0 69.8528 0 45C0 20.1472 20.1472 0 45 0Z" stroke="#E5E7EB"/>
<path d="M63.5 63H26V27H63.5V63Z" stroke="#E5E7EB"/>
<g clip-path="url(#clip0_262_20174)">
<path d="M44.5 29.9365C45.5371 29.9365 46.375 30.7744 46.375 31.8115V35.5615H53.4062C55.7383 35.5615 57.625 37.4482 57.625 39.7803V55.7178C57.625 58.0498 55.7383 59.9365 53.4062 59.9365H35.5938C33.2617 59.9365 31.375 58.0498 31.375 55.7178V39.7803C31.375 37.4482 33.2617 35.5615 35.5938 35.5615H42.625V31.8115C42.625 30.7744 43.4629 29.9365 44.5 29.9365ZM37.9375 52.4365C37.4219 52.4365 37 52.8584 37 53.374C37 53.8896 37.4219 54.3115 37.9375 54.3115H39.8125C40.3281 54.3115 40.75 53.8896 40.75 53.374C40.75 52.8584 40.3281 52.4365 39.8125 52.4365H37.9375ZM43.5625 52.4365C43.0469 52.4365 42.625 52.8584 42.625 53.374C42.625 53.8896 43.0469 54.3115 43.5625 54.3115H45.4375C45.9531 54.3115 46.375 53.8896 46.375 53.374C46.375 52.8584 45.9531 52.4365 45.4375 52.4365H43.5625ZM49.1875 52.4365C48.6719 52.4365 48.25 52.8584 48.25 53.374C48.25 53.8896 48.6719 54.3115 49.1875 54.3115H51.0625C51.5781 54.3115 52 53.8896 52 53.374C52 52.8584 51.5781 52.4365 51.0625 52.4365H49.1875ZM41.2188 44.9365C41.2188 44.3149 40.9718 43.7188 40.5323 43.2792C40.0927 42.8397 39.4966 42.5928 38.875 42.5928C38.2534 42.5928 37.6573 42.8397 37.2177 43.2792C36.7782 43.7188 36.5312 44.3149 36.5312 44.9365C36.5312 45.5581 36.7782 46.1543 37.2177 46.5938C37.6573 47.0333 38.2534 47.2803 38.875 47.2803C39.4966 47.2803 40.0927 47.0333 40.5323 46.5938C40.9718 46.1543 41.2188 45.5581 41.2188 44.9365ZM50.125 47.2803C50.7466 47.2803 51.3427 47.0333 51.7823 46.5938C52.2218 46.1543 52.4688 45.5581 52.4688 44.9365C52.4688 44.3149 52.2218 43.7188 51.7823 43.2792C51.3427 42.8397 50.7466 42.5928 50.125 42.5928C49.5034 42.5928 48.9073 42.8397 48.4677 43.2792C48.0282 43.7188 47.7812 44.3149 47.7812 44.9365C47.7812 45.5581 48.0282 46.1543 48.4677 46.5938C48.9073 47.0333 49.5034 47.2803 50.125 47.2803ZM28.5625 43.0615H29.5V54.3115H28.5625C27.0098 54.3115 25.75 53.0518 25.75 51.499V45.874C25.75 44.3213 27.0098 43.0615 28.5625 43.0615ZM60.4375 43.0615C61.9902 43.0615 63.25 44.3213 63.25 45.874V51.499C63.25 53.0518 61.9902 54.3115 60.4375 54.3115H59.5V43.0615H60.4375Z" fill="white"/>
</g>
<defs>
<clipPath id="clip0_262_20174">
<path d="M25.75 29.9365H63.25V59.9365H25.75V29.9365Z" fill="white"/>
</clipPath>
</defs>
</svg>
