<svg width="13" height="13" viewBox="0 0 13 13" fill="none" xmlns="http://www.w3.org/2000/svg">
<g clip-path="url(#clip0_956_808)">
<path d="M6.60938 12.5C8.20067 12.5 9.7268 11.8679 10.852 10.7426C11.9772 9.61742 12.6094 8.0913 12.6094 6.5C12.6094 4.9087 11.9772 3.38258 10.852 2.25736C9.7268 1.13214 8.20067 0.5 6.60938 0.5C5.01808 0.5 3.49195 1.13214 2.36673 2.25736C1.24152 3.38258 0.609375 4.9087 0.609375 6.5C0.609375 8.0913 1.24152 9.61742 2.36673 10.7426C3.49195 11.8679 5.01808 12.5 6.60938 12.5ZM9.25781 5.39844L6.25781 8.39844C6.0375 8.61875 5.68125 8.61875 5.46328 8.39844L3.96328 6.89844C3.74297 6.67812 3.74297 6.32188 3.96328 6.10391C4.18359 5.88594 4.53984 5.88359 4.75781 6.10391L5.85938 7.20547L8.46094 4.60156C8.68125 4.38125 9.0375 4.38125 9.25547 4.60156C9.47344 4.82188 9.47578 5.17812 9.25547 5.39609L9.25781 5.39844Z" fill="white"/>
</g>
<defs>
<clipPath id="clip0_956_808">
<path d="M0.609375 0.5H12.6094V12.5H0.609375V0.5Z" fill="white"/>
</clipPath>
</defs>
</svg>
