<svg width="13" height="15" viewBox="0 0 13 15" fill="none" xmlns="http://www.w3.org/2000/svg">
<path d="M3.69687 1.23398L3.5 1.625H0.875C0.391016 1.625 0 2.01602 0 2.5C0 2.98398 0.391016 3.375 0.875 3.375H11.375C11.859 3.375 12.25 2.98398 12.25 2.5C12.25 2.01602 11.859 1.625 11.375 1.625H8.75L8.55312 1.23398C8.40547 0.935938 8.10195 0.75 7.77109 0.75H4.47891C4.14805 0.75 3.84453 0.935938 3.69687 1.23398ZM11.375 4.25H0.875L1.45469 13.5195C1.49844 14.2113 2.07266 14.75 2.76445 14.75H9.48555C10.1773 14.75 10.7516 14.2113 10.7953 13.5195L11.375 4.25Z" fill="#DC2626"/>
</svg>
