<svg width="24" height="21" viewBox="0 0 24 21" fill="none" xmlns="http://www.w3.org/2000/svg">
<path d="M16.375 0.5H7.625C6.58984 0.5 5.74609 1.35156 5.78516 2.38281C5.79297 2.58984 5.80078 2.79688 5.8125 3H1.6875C1.16797 3 0.75 3.41797 0.75 3.9375C0.75 7.55469 2.05859 10.0703 3.81641 11.7773C5.54688 13.4609 7.65625 14.3086 9.21094 14.7383C10.125 14.9922 10.75 15.7539 10.75 16.5195C10.75 17.3359 10.0859 18 9.26953 18H8.25C7.55859 18 7 18.5586 7 19.25C7 19.9414 7.55859 20.5 8.25 20.5H15.75C16.4414 20.5 17 19.9414 17 19.25C17 18.5586 16.4414 18 15.75 18H14.7305C13.9141 18 13.25 17.3359 13.25 16.5195C13.25 15.7539 13.8711 14.9883 14.7891 14.7383C16.3477 14.3086 18.457 13.4609 20.1875 11.7773C21.9414 10.0703 23.25 7.55469 23.25 3.9375C23.25 3.41797 22.832 3 22.3125 3H18.1875C18.1992 2.79688 18.207 2.59375 18.2148 2.38281C18.2539 1.35156 17.4102 0.5 16.375 0.5ZM2.66016 4.875H5.95703C6.3125 8.39453 7.09766 10.7461 7.98438 12.3203C7.01172 11.8906 6 11.2852 5.125 10.4336C3.875 9.21875 2.85938 7.46484 2.66406 4.875H2.66016ZM18.8789 10.4336C18.0039 11.2852 16.9922 11.8906 16.0195 12.3203C16.9062 10.7461 17.6914 8.39453 18.0469 4.875H21.3438C21.1445 7.46484 20.1289 9.21875 18.8828 10.4336H18.8789Z" fill="#16A34A"/>
</svg>
