<svg width="14" height="15" viewBox="0 0 14 15" fill="none" xmlns="http://www.w3.org/2000/svg">
<path d="M12.8953 1.34365C12.2965 0.744824 11.3285 0.744824 10.7297 1.34365L9.90664 2.16396L12.5836 4.84092L13.4066 4.01787C14.0055 3.41904 14.0055 2.45107 13.4066 1.85225L12.8953 1.34365ZM4.71406 7.35928C4.54727 7.52607 4.41875 7.73115 4.34492 7.95811L3.53555 10.3862C3.45625 10.6214 3.51914 10.8812 3.69414 11.0589C3.86914 11.2366 4.12891 11.2968 4.3668 11.2175L6.79492 10.4081C7.01914 10.3343 7.22422 10.2058 7.39375 10.039L11.9684 5.46162L9.28867 2.78193L4.71406 7.35928ZM2.625 2.50029C1.17578 2.50029 0 3.67607 0 5.12529V12.1253C0 13.5745 1.17578 14.7503 2.625 14.7503H9.625C11.0742 14.7503 12.25 13.5745 12.25 12.1253V9.50029C12.25 9.01631 11.859 8.62529 11.375 8.62529C10.891 8.62529 10.5 9.01631 10.5 9.50029V12.1253C10.5 12.6093 10.109 13.0003 9.625 13.0003H2.625C2.14102 13.0003 1.75 12.6093 1.75 12.1253V5.12529C1.75 4.64131 2.14102 4.25029 2.625 4.25029H5.25C5.73398 4.25029 6.125 3.85928 6.125 3.37529C6.125 2.89131 5.73398 2.50029 5.25 2.50029H2.625Z" fill="white"/>
</svg>
