<svg width="18" height="17" viewBox="0 0 18 17" fill="none" xmlns="http://www.w3.org/2000/svg">
<path d="M13.2855 2.97305L17.6027 7.29023C17.8559 7.54336 18 7.89141 18 8.25C18 8.60859 17.8559 8.95664 17.6027 9.20977L13.2855 13.527C13.0605 13.752 12.7582 13.875 12.4418 13.875C11.7844 13.875 11.25 13.3406 11.25 12.6832V10.5H6.75C6.12773 10.5 5.625 9.99727 5.625 9.375V7.125C5.625 6.50273 6.12773 6 6.75 6H11.25V3.8168C11.25 3.15937 11.7844 2.625 12.4418 2.625C12.7582 2.625 13.0605 2.75156 13.2855 2.97305ZM5.625 2.625H3.375C2.75273 2.625 2.25 3.12773 2.25 3.75V12.75C2.25 13.3723 2.75273 13.875 3.375 13.875H5.625C6.24727 13.875 6.75 14.3777 6.75 15C6.75 15.6223 6.24727 16.125 5.625 16.125H3.375C1.51172 16.125 0 14.6133 0 12.75V3.75C0 1.88672 1.51172 0.375 3.375 0.375H5.625C6.24727 0.375 6.75 0.877734 6.75 1.5C6.75 2.12227 6.24727 2.625 5.625 2.625Z" fill="#4B5563"/>
</svg>
