<svg width="13" height="13" viewBox="0 0 13 13" fill="none" xmlns="http://www.w3.org/2000/svg">
<path d="M12.2063 2.10508C12.5969 1.71445 12.5969 1.08008 12.2063 0.689453C11.8156 0.298828 11.1813 0.298828 10.7906 0.689453L0.790649 10.6895C0.400024 11.0801 0.400024 11.7145 0.790649 12.1051C1.18127 12.4957 1.81565 12.4957 2.20627 12.1051L12.2063 2.10508ZM4.50002 2.39883C4.50002 1.8684 4.28931 1.35969 3.91424 0.984614C3.53917 0.609542 3.03046 0.398828 2.50002 0.398828C1.96959 0.398828 1.46088 0.609542 1.08581 0.984614C0.710738 1.35969 0.500024 1.8684 0.500024 2.39883C0.500024 2.92926 0.710738 3.43797 1.08581 3.81304C1.46088 4.18811 1.96959 4.39883 2.50002 4.39883C3.03046 4.39883 3.53917 4.18811 3.91424 3.81304C4.28931 3.43797 4.50002 2.92926 4.50002 2.39883ZM12.5 10.3988C12.5 9.8684 12.2893 9.35969 11.9142 8.98462C11.5392 8.60954 11.0305 8.39883 10.5 8.39883C9.96959 8.39883 9.46088 8.60954 9.08581 8.98462C8.71074 9.35969 8.50002 9.8684 8.50002 10.3988C8.50002 10.9293 8.71074 11.438 9.08581 11.813C9.46088 12.1881 9.96959 12.3988 10.5 12.3988C11.0305 12.3988 11.5392 12.1881 11.9142 11.813C12.2893 11.438 12.5 10.9293 12.5 10.3988Z" fill="#6C5DD3"/>
</svg>
