<svg width="17" height="16" viewBox="0 0 17 16" fill="none" xmlns="http://www.w3.org/2000/svg">
<path d="M9.40316 0.5625C9.23753 0.21875 8.88753 0 8.50316 0C8.11878 0 7.7719 0.21875 7.60316 0.5625L5.59378 4.69688L1.10628 5.35938C0.731281 5.41563 0.418781 5.67812 0.303156 6.0375C0.187531 6.39687 0.28128 6.79375 0.55003 7.05937L3.80628 10.2812L3.03753 14.8344C2.97503 15.2094 3.13128 15.5906 3.44066 15.8125C3.75003 16.0344 4.15941 16.0625 4.49691 15.8844L8.50628 13.7437L12.5157 15.8844C12.8532 16.0625 13.2625 16.0375 13.5719 15.8125C13.8813 15.5875 14.0375 15.2094 13.975 14.8344L13.2032 10.2812L16.4594 7.05937C16.7282 6.79375 16.825 6.39687 16.7063 6.0375C16.5875 5.67812 16.2782 5.41563 15.9032 5.35938L11.4125 4.69688L9.40316 0.5625Z" fill="#EAB308"/>
</svg>
