<svg width="26" height="24" viewBox="0 0 26 24" fill="none" xmlns="http://www.w3.org/2000/svg">
<path d="M14.3547 0.84375C14.1062 0.328125 13.5812 0 13.0047 0C12.4281 0 11.9078 0.328125 11.6547 0.84375L8.64061 7.04531L1.90936 8.03906C1.34686 8.12344 0.87811 8.51719 0.704672 9.05625C0.531235 9.59531 0.67186 10.1906 1.07498 10.5891L5.95936 15.4219L4.80623 22.2516C4.71248 22.8141 4.94686 23.3859 5.41092 23.7188C5.87498 24.0516 6.48905 24.0938 6.9953 23.8266L13.0094 20.6156L19.0234 23.8266C19.5297 24.0938 20.1437 24.0562 20.6078 23.7188C21.0719 23.3813 21.3062 22.8141 21.2125 22.2516L20.0547 15.4219L24.939 10.5891C25.3422 10.1906 25.4875 9.59531 25.3094 9.05625C25.1312 8.51719 24.6672 8.12344 24.1047 8.03906L17.3687 7.04531L14.3547 0.84375Z" fill="white"/>
</svg>
