<svg width="16" height="17" viewBox="0 0 16 17" fill="none" xmlns="http://www.w3.org/2000/svg">
<g clip-path="url(#clip0_523_759)">
<path d="M5.57374 1.02661C3.97509 1.5812 2.59642 2.63382 1.64023 4.02987C0.684041 5.42591 0.200732 7.09179 0.261296 8.78282C0.32186 10.4738 0.923104 12.1009 1.97671 13.425C3.03032 14.749 4.48077 15.7003 6.11499 16.1391C7.4399 16.481 8.828 16.496 10.16 16.1829C11.3666 15.9118 12.4822 15.3321 13.3975 14.5004C14.3501 13.6083 15.0415 12.4735 15.3975 11.2179C15.7844 9.85245 15.8532 8.41653 15.5987 7.02036H8.15874V10.1066H12.4675C12.3814 10.5988 12.1968 11.0687 11.9249 11.4879C11.653 11.9072 11.2993 12.2672 10.885 12.5466C10.3588 12.8947 9.76574 13.1288 9.14374 13.2341C8.51992 13.3501 7.88006 13.3501 7.25624 13.2341C6.62398 13.1034 6.02587 12.8424 5.49999 12.4679C4.65518 11.8698 4.02084 11.0203 3.68749 10.0404C3.34851 9.04211 3.34851 7.95987 3.68749 6.96161C3.92478 6.26188 4.31703 5.62478 4.83499 5.09786C5.42773 4.4838 6.17816 4.04486 7.00394 3.82921C7.82972 3.61356 8.69894 3.62953 9.51624 3.87536C10.1547 4.07135 10.7386 4.41379 11.2212 4.87536C11.7071 4.39203 12.1921 3.90745 12.6762 3.42161C12.9262 3.16036 13.1987 2.91161 13.445 2.64411C12.7082 1.95846 11.8433 1.42494 10.9 1.07411C9.18212 0.450351 7.30246 0.433588 5.57374 1.02661Z" fill="white"/>
<path d="M5.57372 1.02624C7.3023 0.432816 9.18196 0.449138 10.9 1.07249C11.8435 1.4257 12.708 1.96179 13.4437 2.64999C13.1937 2.91749 12.93 3.16749 12.675 3.42749C12.19 3.91166 11.7054 4.39416 11.2212 4.87499C10.7385 4.41342 10.1547 4.07098 9.51622 3.87499C8.69919 3.6283 7.82999 3.6114 7.00399 3.82617C6.178 4.04094 5.42711 4.47907 4.83372 5.09249C4.31576 5.61941 3.9235 6.25652 3.68622 6.95624L1.09497 4.94999C2.02248 3.1107 3.62841 1.70377 5.57372 1.02624Z" fill="#E33629"/>
<path d="M0.40756 6.9377C0.546836 6.24744 0.778064 5.57898 1.09506 4.9502L3.68631 6.96145C3.34733 7.9597 3.34733 9.04194 3.68631 10.0402C2.82298 10.7069 1.95923 11.3769 1.09506 12.0502C0.301498 10.4706 0.0594757 8.67082 0.40756 6.9377Z" fill="#F8BD00"/>
<path d="M8.15876 7.01855H15.5988C15.8533 8.41472 15.7844 9.85064 15.3975 11.2161C15.0416 12.4717 14.3501 13.6065 13.3975 14.4986C12.5613 13.8461 11.7213 13.1986 10.885 12.5461C11.2996 12.2664 11.6535 11.9059 11.9254 11.4862C12.1973 11.0665 12.3817 10.5962 12.4675 10.1036H8.15876C8.15751 9.07605 8.15876 8.0473 8.15876 7.01855Z" fill="#587DBD"/>
<path d="M1.09375 12.05C1.95792 11.3834 2.82167 10.7134 3.685 10.04C4.01901 11.0203 4.65426 11.8699 5.5 12.4675C6.02751 12.8404 6.62691 13.0992 7.26 13.2275C7.88382 13.3435 8.52368 13.3435 9.1475 13.2275C9.76949 13.1223 10.3626 12.8881 10.8888 12.54C11.725 13.1925 12.565 13.84 13.4012 14.4925C12.4861 15.3247 11.3705 15.9049 10.1637 16.1763C8.83176 16.4894 7.44365 16.4744 6.11875 16.1325C5.07088 15.8528 4.09209 15.3595 3.24375 14.6838C2.34583 13.9709 1.61244 13.0725 1.09375 12.05Z" fill="#319F43"/>
</g>
<defs>
<clipPath id="clip0_523_759">
<rect width="16" height="16" fill="white" transform="translate(0 0.5)"/>
</clipPath>
</defs>
</svg>
