<svg width="80" height="80" viewBox="0 0 80 80" fill="none" xmlns="http://www.w3.org/2000/svg">
<path d="M40 0C62.0914 0 80 17.9086 80 40C80 62.0914 62.0914 80 40 80C17.9086 80 0 62.0914 0 40C0 17.9086 17.9086 0 40 0Z" fill="#00C48C" fill-opacity="0.1"/>
<path d="M40 0C62.0914 0 80 17.9086 80 40C80 62.0914 62.0914 80 40 80C17.9086 80 0 62.0914 0 40C0 17.9086 17.9086 0 40 0Z" stroke="#E5E7EB"/>
<path d="M53.125 58H26.875V22H53.125V58Z" stroke="#E5E7EB"/>
<g clip-path="url(#clip0_506_23279)">
<path d="M52.5742 30.9263C53.3066 31.6587 53.3066 32.8481 52.5742 33.5806L37.5742 48.5806C36.8418 49.313 35.6523 49.313 34.9199 48.5806L27.4199 41.0806C26.6875 40.3481 26.6875 39.1587 27.4199 38.4263C28.1523 37.6938 29.3418 37.6938 30.0742 38.4263L36.25 44.5962L49.9258 30.9263C50.6582 30.1938 51.8477 30.1938 52.5801 30.9263H52.5742Z" fill="#00C48C"/>
</g>
<defs>
<clipPath id="clip0_506_23279">
<path d="M26.875 24.75H53.125V54.75H26.875V24.75Z" fill="white"/>
</clipPath>
</defs>
</svg>
