<svg width="13" height="16" viewBox="0 0 13 16" fill="none" xmlns="http://www.w3.org/2000/svg">
<g clip-path="url(#clip0_261_17959)">
<path d="M12.6562 16H0.65625V0H12.6562V16Z" stroke="#E5E7EB"/>
<path d="M11.3629 4.70664C11.7535 4.31602 11.7535 3.68164 11.3629 3.29102C10.9723 2.90039 10.3379 2.90039 9.94727 3.29102L6.65664 6.58477L3.36289 3.29414C2.97227 2.90352 2.33789 2.90352 1.94727 3.29414C1.55664 3.68477 1.55664 4.31914 1.94727 4.70977L5.24102 8.00039L1.95039 11.2941C1.55977 11.6848 1.55977 12.3191 1.95039 12.7098C2.34102 13.1004 2.97539 13.1004 3.36602 12.7098L6.65664 9.41602L9.95039 12.7066C10.341 13.0973 10.9754 13.0973 11.366 12.7066C11.7566 12.316 11.7566 11.6816 11.366 11.291L8.07227 8.00039L11.3629 4.70664Z" fill="#9CA3AF"/>
</g>
<defs>
<clipPath id="clip0_261_17959">
<rect width="12" height="16" fill="white" transform="translate(0.65625)"/>
</clipPath>
</defs>
</svg>
