<svg width="37" height="37" viewBox="0 0 37 37" fill="none" xmlns="http://www.w3.org/2000/svg">
<g clip-path="url(#clip0_261_17857)">
<path d="M36.3281 2.75C36.3281 10.7375 30.3797 17.3398 22.6734 18.3594C22.1742 14.6047 20.5219 11.2156 18.082 8.56484C20.775 3.75547 25.9219 0.5 31.8281 0.5H34.0781C35.3227 0.5 36.3281 1.50547 36.3281 2.75ZM0.328125 7.25C0.328125 6.00547 1.33359 5 2.57812 5H4.82812C13.5258 5 20.5781 12.0523 20.5781 20.75V23V34.25C20.5781 35.4945 19.5727 36.5 18.3281 36.5C17.0836 36.5 16.0781 35.4945 16.0781 34.25V23C7.38047 23 0.328125 15.9477 0.328125 7.25Z" fill="#6B7280"/>
</g>
<defs>
<clipPath id="clip0_261_17857">
<path d="M0.328125 0.5H36.3281V36.5H0.328125V0.5Z" fill="white"/>
</clipPath>
</defs>
</svg>
