<svg width="43" height="38" viewBox="0 0 43 38" fill="none" xmlns="http://www.w3.org/2000/svg">
<g clip-path="url(#clip0_264_21248)">
<path d="M23.5277 1.50371C23.1364 0.691602 22.3096 0.174805 21.4015 0.174805C20.4934 0.174805 19.6739 0.691602 19.2752 1.50371L14.5281 11.2712L3.92636 12.8363C3.04042 12.9692 2.30214 13.5894 2.02897 14.4384C1.75581 15.2874 1.97729 16.225 2.61221 16.8526L10.3051 24.4643L8.48894 35.221C8.34128 36.107 8.71042 37.0077 9.44132 37.5319C10.1722 38.056 11.1394 38.1225 11.9367 37.7017L21.4089 32.6444L30.881 37.7017C31.6784 38.1225 32.6455 38.0634 33.3764 37.5319C34.1073 37.0003 34.4764 36.107 34.3288 35.221L32.5052 24.4643L40.1981 16.8526C40.8331 16.225 41.0619 15.2874 40.7814 14.4384C40.5008 13.5894 39.7699 12.9692 38.884 12.8363L28.2749 11.2712L23.5277 1.50371Z" fill="#FDE047"/>
</g>
<defs>
<clipPath id="clip0_264_21248">
<path d="M0.130859 0.174805H42.6559V37.9748H0.130859V0.174805Z" fill="white"/>
</clipPath>
</defs>
</svg>
