<svg width="15" height="17" viewBox="0 0 15 17" fill="none" xmlns="http://www.w3.org/2000/svg">
<g clip-path="url(#clip0_262_19618)">
<path d="M7.5 8.5C8.56087 8.5 9.57828 8.07857 10.3284 7.32843C11.0786 6.57828 11.5 5.56087 11.5 4.5C11.5 3.43913 11.0786 2.42172 10.3284 1.67157C9.57828 0.921427 8.56087 0.5 7.5 0.5C6.43913 0.5 5.42172 0.921427 4.67157 1.67157C3.92143 2.42172 3.5 3.43913 3.5 4.5C3.5 5.56087 3.92143 6.57828 4.67157 7.32843C5.42172 8.07857 6.43913 8.5 7.5 8.5ZM6.07188 10C2.99375 10 0.5 12.4937 0.5 15.5719C0.5 16.0844 0.915625 16.5 1.42813 16.5H13.5719C14.0844 16.5 14.5 16.0844 14.5 15.5719C14.5 12.4937 12.0063 10 8.92813 10H6.07188Z" fill="#7B88A8"/>
</g>
<defs>
<clipPath id="clip0_262_19618">
<path d="M0.5 0.5H14.5V16.5H0.5V0.5Z" fill="white"/>
</clipPath>
</defs>
</svg>
