<svg width="17" height="16" viewBox="0 0 17 16" fill="none" xmlns="http://www.w3.org/2000/svg">
<g clip-path="url(#clip0_506_23293)">
<g clip-path="url(#clip1_506_23293)">
<path d="M2.15625 2C1.32812 2 0.65625 2.67188 0.65625 3.5C0.65625 3.97187 0.878125 4.41562 1.25625 4.7L8.05625 9.8C8.4125 10.0656 8.9 10.0656 9.25625 9.8L16.0562 4.7C16.4344 4.41562 16.6562 3.97187 16.6562 3.5C16.6562 2.67188 15.9844 2 15.1562 2H2.15625ZM0.65625 5.5V12C0.65625 13.1031 1.55313 14 2.65625 14H14.6562C15.7594 14 16.6562 13.1031 16.6562 12V5.5L9.85625 10.6C9.14375 11.1344 8.16875 11.1344 7.45625 10.6L0.65625 5.5Z" fill="#6C5DD3"/>
</g>
</g>
<defs>
<clipPath id="clip0_506_23293">
<rect width="16" height="16" fill="white" transform="translate(0.65625)"/>
</clipPath>
<clipPath id="clip1_506_23293">
<path d="M0.65625 0H16.6562V16H0.65625V0Z" fill="white"/>
</clipPath>
</defs>
</svg>
