<svg width="41" height="37" viewBox="0 0 41 37" fill="none" xmlns="http://www.w3.org/2000/svg">
<g clip-path="url(#clip0_264_21287)">
<g clip-path="url(#clip1_264_21287)">
<path d="M21.8047 7.95312C22.6063 7.46094 23.1406 6.56797 23.1406 5.5625C23.1406 4.00859 21.882 2.75 20.3281 2.75C18.7742 2.75 17.5156 4.00859 17.5156 5.5625C17.5156 6.575 18.05 7.46094 18.8516 7.95312L14.8227 16.0109C14.1828 17.2906 12.5234 17.6562 11.4055 16.7633L5.14062 11.75C5.49219 11.2789 5.70312 10.6953 5.70312 10.0625C5.70312 8.50859 4.44453 7.25 2.89062 7.25C1.33672 7.25 0.078125 8.50859 0.078125 10.0625C0.078125 11.6164 1.33672 12.875 2.89062 12.875C2.90469 12.875 2.92578 12.875 2.93984 12.875L6.15313 30.5516C6.53984 32.6891 8.40312 34.25 10.5828 34.25H30.0734C32.2461 34.25 34.1094 32.6961 34.5031 30.5516L37.7164 12.875C37.7305 12.875 37.7516 12.875 37.7656 12.875C39.3195 12.875 40.5781 11.6164 40.5781 10.0625C40.5781 8.50859 39.3195 7.25 37.7656 7.25C36.2117 7.25 34.9531 8.50859 34.9531 10.0625C34.9531 10.6953 35.1641 11.2789 35.5156 11.75L29.2508 16.7633C28.1328 17.6562 26.4734 17.2906 25.8336 16.0109L21.8047 7.95312Z" fill="#9333EA"/>
</g>
</g>
<defs>
<clipPath id="clip0_264_21287">
<rect width="40.5" height="36" fill="white" transform="translate(0.078125 0.5)"/>
</clipPath>
<clipPath id="clip1_264_21287">
<path d="M0.078125 0.5H40.5781V36.5H0.078125V0.5Z" fill="white"/>
</clipPath>
</defs>
</svg>
