<svg width="19" height="21" viewBox="0 0 19 21" fill="none" xmlns="http://www.w3.org/2000/svg">
<path d="M6.97266 0.710948C7.27734 0.425791 7.75 0.429698 8.05469 0.714854C9.13281 1.72657 10.1445 2.81642 11.0898 3.9961C11.5195 3.4336 12.0078 2.82032 12.5352 2.32032C12.8438 2.03126 13.3203 2.03126 13.6289 2.32423C14.9805 3.61329 16.125 5.31642 16.9297 6.9336C17.7227 8.52735 18.25 10.1563 18.25 11.3047C18.25 16.2891 14.3516 20.5 9.5 20.5C4.59375 20.5 0.75 16.2852 0.75 11.3008C0.75 9.80079 1.44531 7.96876 2.52344 6.15626C3.61328 4.31642 5.15234 2.39845 6.97266 0.710948ZM9.56641 16.75C10.5547 16.75 11.4297 16.4766 12.2539 15.9297C13.8984 14.7813 14.3398 12.4844 13.3516 10.6797C13.1758 10.3281 12.7266 10.3047 12.4727 10.6016L11.4883 11.7461C11.2305 12.043 10.7656 12.0352 10.5234 11.7266C9.87891 10.9063 8.72656 9.44142 8.07031 8.60939C7.82422 8.29689 7.35547 8.29298 7.10547 8.60548C5.78516 10.2656 5.12109 11.3125 5.12109 12.4883C5.125 15.1641 7.10156 16.75 9.56641 16.75Z" fill="#EF4444"/>
</svg>
