<svg width="20" height="21" viewBox="0 0 20 21" fill="none" xmlns="http://www.w3.org/2000/svg">
<path d="M20 20.5H0V0.5H20V20.5Z" stroke="#E5E7EB"/>
<path d="M2.5 1.75C1.12109 1.75 0 2.87109 0 4.25V16.75C0 18.1289 1.12109 19.25 2.5 19.25H17.5C18.8789 19.25 20 18.1289 20 16.75V8C20 6.62109 18.8789 5.5 17.5 5.5H3.125C2.78125 5.5 2.5 5.21875 2.5 4.875C2.5 4.53125 2.78125 4.25 3.125 4.25H17.5C18.1914 4.25 18.75 3.69141 18.75 3C18.75 2.30859 18.1914 1.75 17.5 1.75H2.5ZM16.25 11.125C16.5815 11.125 16.8995 11.2567 17.1339 11.4911C17.3683 11.7255 17.5 12.0435 17.5 12.375C17.5 12.7065 17.3683 13.0245 17.1339 13.2589C16.8995 13.4933 16.5815 13.625 16.25 13.625C15.9185 13.625 15.6005 13.4933 15.3661 13.2589C15.1317 13.0245 15 12.7065 15 12.375C15 12.0435 15.1317 11.7255 15.3661 11.4911C15.6005 11.2567 15.9185 11.125 16.25 11.125Z" fill="#00C48C"/>
</svg>
