<svg width="15" height="21" viewBox="0 0 15 21" fill="none" xmlns="http://www.w3.org/2000/svg">
<path d="M0.546875 0.586258C0.878906 0.433915 1.26953 0.488602 1.54688 0.726883L3.125 2.07845L4.70312 0.726883C5.05469 0.426102 5.57422 0.426102 5.92188 0.726883L7.5 2.07845L9.07812 0.726883C9.42969 0.426102 9.94922 0.426102 10.2969 0.726883L11.875 2.07845L13.4531 0.726883C13.7305 0.488602 14.1211 0.433915 14.4531 0.586258C14.7852 0.738602 15 1.07063 15 1.43782V19.5628C15 19.93 14.7852 20.262 14.4531 20.4144C14.1211 20.5667 13.7305 20.512 13.4531 20.2738L11.875 18.9222L10.2969 20.2738C9.94531 20.5745 9.42578 20.5745 9.07812 20.2738L7.5 18.9222L5.92188 20.2738C5.57031 20.5745 5.05078 20.5745 4.70312 20.2738L3.125 18.9222L1.54688 20.2738C1.26953 20.512 0.878906 20.5667 0.546875 20.4144C0.214844 20.262 0 19.93 0 19.5628V1.43782C0 1.07063 0.214844 0.738602 0.546875 0.586258ZM3.75 6.12532C3.40625 6.12532 3.125 6.40657 3.125 6.75032C3.125 7.09407 3.40625 7.37532 3.75 7.37532H11.25C11.5938 7.37532 11.875 7.09407 11.875 6.75032C11.875 6.40657 11.5938 6.12532 11.25 6.12532H3.75ZM3.125 14.2503C3.125 14.5941 3.40625 14.8753 3.75 14.8753H11.25C11.5938 14.8753 11.875 14.5941 11.875 14.2503C11.875 13.9066 11.5938 13.6253 11.25 13.6253H3.75C3.40625 13.6253 3.125 13.9066 3.125 14.2503ZM3.75 9.87532C3.40625 9.87532 3.125 10.1566 3.125 10.5003C3.125 10.8441 3.40625 11.1253 3.75 11.1253H11.25C11.5938 11.1253 11.875 10.8441 11.875 10.5003C11.875 10.1566 11.5938 9.87532 11.25 9.87532H3.75Z" fill="#FF6B6B"/>
</svg>
