<svg width="23" height="19" viewBox="0 0 23 19" fill="none" xmlns="http://www.w3.org/2000/svg">
<path d="M12.5703 3.64062C13.0156 3.36719 13.3125 2.87109 13.3125 2.3125C13.3125 1.44922 12.6133 0.75 11.75 0.75C10.8867 0.75 10.1875 1.44922 10.1875 2.3125C10.1875 2.875 10.4844 3.36719 10.9297 3.64062L8.69141 8.11719C8.33594 8.82812 7.41406 9.03125 6.79297 8.53516L3.3125 5.75C3.50781 5.48828 3.625 5.16406 3.625 4.8125C3.625 3.94922 2.92578 3.25 2.0625 3.25C1.19922 3.25 0.5 3.94922 0.5 4.8125C0.5 5.67578 1.19922 6.375 2.0625 6.375C2.07031 6.375 2.08203 6.375 2.08984 6.375L3.875 16.1953C4.08984 17.3828 5.125 18.25 6.33594 18.25H17.1641C18.3711 18.25 19.4062 17.3867 19.625 16.1953L21.4102 6.375C21.418 6.375 21.4297 6.375 21.4375 6.375C22.3008 6.375 23 5.67578 23 4.8125C23 3.94922 22.3008 3.25 21.4375 3.25C20.5742 3.25 19.875 3.94922 19.875 4.8125C19.875 5.16406 19.9922 5.48828 20.1875 5.75L16.707 8.53516C16.0859 9.03125 15.1641 8.82812 14.8086 8.11719L12.5703 3.64062Z" fill="#EAB308"/>
</svg>
