<svg width="15" height="21" viewBox="0 0 15 21" fill="none" xmlns="http://www.w3.org/2000/svg">
<g clip-path="url(#clip0_262_20040)">
<path d="M10.625 15.5C11 14.2539 11.7773 13.1914 12.5469 12.1328C12.75 11.8555 12.9531 11.5781 13.1484 11.2969C13.9219 10.1836 14.375 8.83594 14.375 7.37891C14.375 3.57812 11.2969 0.5 7.5 0.5C3.70312 0.5 0.625 3.57812 0.625 7.375C0.625 8.83203 1.07813 10.1836 1.85156 11.293C2.04688 11.5742 2.25 11.8516 2.45312 12.1289C3.22656 13.1875 4.00391 14.2539 4.375 15.4961H10.625V15.5ZM7.5 20.5C9.22656 20.5 10.625 19.1016 10.625 17.375V16.75H4.375V17.375C4.375 19.1016 5.77344 20.5 7.5 20.5ZM4.375 7.375C4.375 7.71875 4.09375 8 3.75 8C3.40625 8 3.125 7.71875 3.125 7.375C3.125 4.95703 5.08203 3 7.5 3C7.84375 3 8.125 3.28125 8.125 3.625C8.125 3.96875 7.84375 4.25 7.5 4.25C5.77344 4.25 4.375 5.64844 4.375 7.375Z" fill="#6C5DD3"/>
</g>
<defs>
<clipPath id="clip0_262_20040">
<path d="M0 0.5H15V20.5H0V0.5Z" fill="white"/>
</clipPath>
</defs>
</svg>
