<svg width="107" height="28" viewBox="0 0 107 28" fill="none" xmlns="http://www.w3.org/2000/svg">
<path fill-rule="evenodd" clip-rule="evenodd" d="M14.802 5.70395C16.7806 5.80473 18.7593 5.09928 19.9959 4.20487C21.212 3.28527 22.0158 2.05074 21.8097 0.791016C20.0578 0.841405 17.8936 1.49646 16.657 2.41606C15.5234 3.20969 14.5547 4.49461 14.802 5.70395ZM38.3379 21.9288V2.28963H50.3953C56.6198 2.28963 60.9687 4.90986 60.9687 8.73943C60.9687 12.569 56.5373 15.2144 50.2304 15.2144H43.3257V21.9288H38.3379ZM21.7877 5.94454C20.0446 5.88322 18.454 6.26494 17.1693 6.57328C16.3425 6.77169 15.6424 6.93972 15.1098 6.93972C14.5121 6.93972 13.7831 6.76271 12.9645 6.56397C11.892 6.30356 10.6658 6.00583 9.37995 6.02012C6.43259 6.04531 3.69134 7.06569 2.18674 8.69074C-0.904898 11.9408 1.38292 16.753 4.3715 19.3984C5.83488 20.7085 7.5868 22.1446 9.89523 22.0942C10.9108 22.0708 11.6413 21.8813 12.3974 21.6853C13.2678 21.4595 14.172 21.225 15.5838 21.225C16.9468 21.225 17.8114 21.4534 18.6414 21.6726C19.4307 21.8811 20.1886 22.0813 21.3137 22.069C23.7045 22.0438 25.2091 20.7589 26.6725 19.4488C28.2517 18.0427 28.9457 16.6704 29.051 16.4621C29.0571 16.4502 29.0612 16.4421 29.0634 16.4381C29.0609 16.4365 29.0414 16.4311 29.0069 16.4214C28.479 16.2737 24.444 15.1447 24.4053 12.1172C24.3665 9.57604 27.6058 8.28854 28.1157 8.08586L28.1158 8.08581C28.1468 8.07351 28.1677 8.06521 28.1771 8.06088C26.116 6.19648 22.9007 5.99492 21.7877 5.94454ZM70.0806 22.0811C73.2135 22.0811 76.1196 21.1111 77.4387 19.5742H77.5417V21.9299H82.1586V12.1544C82.1586 9.32005 78.4486 7.49345 72.7394 7.49345C67.4424 7.49345 63.5263 9.34524 63.382 11.8899H67.8752C68.2462 10.6806 70.0806 9.88693 72.5951 9.88693C75.6455 9.88693 77.3562 10.7561 77.3562 12.356V13.4394L71.1317 13.6661C65.3401 13.8803 62.2072 15.3289 62.2072 17.8484C62.2072 20.393 65.4431 22.0811 70.0806 22.0811ZM71.4189 19.7508C68.7601 19.7508 67.07 18.9698 67.07 17.7731C67.07 16.5385 68.6982 15.8205 71.8105 15.7071L77.3548 15.493V16.6015C77.3548 18.4407 74.7991 19.7508 71.4189 19.7508ZM97.4713 22.6954C95.472 26.1345 93.1842 27.2682 88.32 27.2682C87.949 27.2682 86.7124 27.243 86.4238 27.1926V24.8369C86.733 24.8621 87.4956 24.8873 87.8872 24.8873C90.0925 24.8873 91.3292 24.3205 92.0918 22.8466L92.5452 21.9774L84.0948 7.67948H89.3093L95.1834 19.2816H95.2865L101.161 7.67948H106.231L97.4713 22.6954ZM43.3246 4.85795H49.0751C53.4034 4.85795 55.8767 6.26884 55.8767 8.7505C55.8767 11.2322 53.4034 12.6557 49.0545 12.6557H43.3246V4.85795Z" fill="black"/>
</svg>
