<svg width="96" height="36" viewBox="0 0 96 36" fill="none" xmlns="http://www.w3.org/2000/svg">
<path d="M66.6855 0.707031C82.5495 0.707095 95.4098 8.56228 95.4102 18.252C95.4102 27.9418 82.5497 35.7978 66.6855 35.7979C59.5753 35.7979 53.0688 34.2183 48.0527 31.6045C43.0369 34.2179 36.5315 35.7978 29.4219 35.7979C13.5576 35.7979 0.696289 27.9418 0.696289 18.252C0.696616 8.56224 13.5578 0.707031 29.4219 0.707031C36.5313 0.707089 43.0369 2.28607 48.0527 4.89941C53.0688 2.28568 59.5754 0.707031 66.6855 0.707031Z" fill="#ED0006"/>
<path d="M66.6855 0.707031C82.5495 0.707095 95.4098 8.56228 95.4102 18.252C95.4102 27.9418 82.5497 35.7978 66.6855 35.7979C59.5753 35.7979 53.0688 34.2183 48.0527 31.6045C54.229 28.3864 58.1465 23.5992 58.1465 18.252C58.1463 12.9048 54.2291 8.11743 48.0527 4.89941C53.0688 2.28568 59.5754 0.707031 66.6855 0.707031Z" fill="#F9A000"/>
<path d="M48.0518 4.89844C54.2281 8.11646 58.1453 12.9038 58.1455 18.251C58.1455 23.5982 54.2281 28.3854 48.0518 31.6035C41.8761 28.3854 37.96 23.5979 37.96 18.251C37.9601 12.9041 41.876 8.11645 48.0518 4.89844Z" fill="#FF5E00"/>
</svg>
