<svg width="105" height="21" viewBox="0 0 105 21" fill="none" xmlns="http://www.w3.org/2000/svg">
<path fill-rule="evenodd" clip-rule="evenodd" d="M26.7258 20.3242H17.8003L11.1072 4.90681C10.7895 4.19761 10.115 3.57064 9.12279 3.27513C6.64662 2.53253 3.91804 1.94153 0.941406 1.64346V1.04989H15.3198C17.3042 1.04989 18.7925 1.94153 19.0405 2.97706L22.5133 14.0982L31.4345 1.04989H40.112L26.7258 20.3242ZM45.0741 20.3242H36.6447L43.5858 1.04989H52.0152L45.0741 20.3242ZM62.9189 6.38957C63.1669 5.35147 64.6552 4.7579 66.3916 4.7579C69.1202 4.60886 72.0925 4.90693 74.573 5.64697L76.0613 1.49711C73.5808 0.903539 70.8522 0.605469 68.376 0.605469C60.1946 0.605469 54.2414 3.27525 54.2414 6.98058C54.2414 9.7994 58.4583 11.2795 61.4349 12.1711C64.6552 13.0602 65.8955 13.6538 65.6475 14.5428C65.6475 15.8764 63.1669 16.47 60.6907 16.47C57.7141 16.47 54.7375 16.0255 52.0133 15.2829L50.5249 19.4353C53.5016 20.1753 56.7219 20.4734 59.6985 20.4734C68.8721 20.6199 74.573 17.9526 74.573 13.9493C74.573 8.90775 62.9189 8.61225 62.9189 6.38957V6.38957ZM104.076 20.3242L97.3829 1.04989H90.1938C88.7055 1.04989 87.2171 1.64346 86.721 2.53253L74.3271 20.3242H83.0046L84.7366 17.508H95.3985L96.3907 20.3242H104.076ZM91.4321 6.2382L93.9083 13.5024H86.9672L91.4321 6.2382Z" fill="#172B85"/>
</svg>
