<svg width="48" height="48" viewBox="0 0 48 48" fill="none" xmlns="http://www.w3.org/2000/svg">
<path d="M24 0C37.2548 0 48 10.7452 48 24C48 37.2548 37.2548 48 24 48C10.7452 48 0 37.2548 0 24C0 10.7452 10.7452 0 24 0Z" fill="#FF6B6B" fill-opacity="0.2"/>
<path d="M24 0C37.2548 0 48 10.7452 48 24C48 37.2548 37.2548 48 24 48C10.7452 48 0 37.2548 0 24C0 10.7452 10.7452 0 24 0Z" stroke="#E5E7EB"/>
<path d="M34 38H14V10H34V38Z" stroke="#E5E7EB"/>
<g clip-path="url(#clip0_261_16950)">
<path d="M24.0005 14.75C24.5552 14.75 25.0669 15.043 25.3482 15.5234L33.7857 29.8984C34.0708 30.3828 34.0708 30.9805 33.7935 31.4648C33.5161 31.9492 32.9966 32.25 32.438 32.25H15.563C15.0044 32.25 14.4849 31.9492 14.2075 31.4648C13.9302 30.9805 13.9341 30.3789 14.2154 29.8984L22.6529 15.5234C22.9341 15.043 23.4458 14.75 24.0005 14.75ZM24.0005 19.75C23.481 19.75 23.063 20.168 23.063 20.6875V25.0625C23.063 25.582 23.481 26 24.0005 26C24.52 26 24.938 25.582 24.938 25.0625V20.6875C24.938 20.168 24.52 19.75 24.0005 19.75ZM25.2505 28.5C25.2505 28.1685 25.1188 27.8505 24.8844 27.6161C24.65 27.3817 24.332 27.25 24.0005 27.25C23.669 27.25 23.351 27.3817 23.1166 27.6161C22.8822 27.8505 22.7505 28.1685 22.7505 28.5C22.7505 28.8315 22.8822 29.1495 23.1166 29.3839C23.351 29.6183 23.669 29.75 24.0005 29.75C24.332 29.75 24.65 29.6183 24.8844 29.3839C25.1188 29.1495 25.2505 28.8315 25.2505 28.5Z" fill="#FF6B6B"/>
</g>
<defs>
<clipPath id="clip0_261_16950">
<path d="M14 13.5H34V33.5H14V13.5Z" fill="white"/>
</clipPath>
</defs>
</svg>
