<svg width="48" height="48" viewBox="0 0 48 48" fill="none" xmlns="http://www.w3.org/2000/svg">
<path d="M24 0C37.2548 0 48 10.7452 48 24C48 37.2548 37.2548 48 24 48C10.7452 48 0 37.2548 0 24C0 10.7452 10.7452 0 24 0Z" fill="#00C48C" fill-opacity="0.2"/>
<path d="M24 0C37.2548 0 48 10.7452 48 24C48 37.2548 37.2548 48 24 48C10.7452 48 0 37.2548 0 24C0 10.7452 10.7452 0 24 0Z" stroke="#E5E7EB"/>
<path d="M35.25 38H12.75V10H35.25V38Z" stroke="#E5E7EB"/>
<g clip-path="url(#clip0_261_16954)">
<path d="M28.375 13.5H19.625C18.5898 13.5 17.7461 14.3516 17.7852 15.3828C17.793 15.5898 17.8008 15.7969 17.8125 16H13.6875C13.168 16 12.75 16.418 12.75 16.9375C12.75 20.5547 14.0586 23.0703 15.8164 24.7773C17.5469 26.4609 19.6563 27.3086 21.2109 27.7383C22.125 27.9922 22.75 28.7539 22.75 29.5195C22.75 30.3359 22.0859 31 21.2695 31H20.25C19.5586 31 19 31.5586 19 32.25C19 32.9414 19.5586 33.5 20.25 33.5H27.75C28.4414 33.5 29 32.9414 29 32.25C29 31.5586 28.4414 31 27.75 31H26.7305C25.9141 31 25.25 30.3359 25.25 29.5195C25.25 28.7539 25.8711 27.9883 26.7891 27.7383C28.3477 27.3086 30.457 26.4609 32.1875 24.7773C33.9414 23.0703 35.25 20.5547 35.25 16.9375C35.25 16.418 34.832 16 34.3125 16H30.1875C30.1992 15.7969 30.207 15.5938 30.2148 15.3828C30.2539 14.3516 29.4102 13.5 28.375 13.5ZM14.6602 17.875H17.957C18.3125 21.3945 19.0977 23.7461 19.9844 25.3203C19.0117 24.8906 18 24.2852 17.125 23.4336C15.875 22.2188 14.8594 20.4648 14.6641 17.875H14.6602ZM30.8789 23.4336C30.0039 24.2852 28.9922 24.8906 28.0195 25.3203C28.9062 23.7461 29.6914 21.3945 30.0469 17.875H33.3438C33.1445 20.4648 32.1289 22.2188 30.8828 23.4336H30.8789Z" fill="#00C48C"/>
</g>
<defs>
<clipPath id="clip0_261_16954">
<path d="M12.75 13.5H35.25V33.5H12.75V13.5Z" fill="white"/>
</clipPath>
</defs>
</svg>
