<svg width="48" height="48" viewBox="0 0 48 48" fill="none" xmlns="http://www.w3.org/2000/svg">
<path d="M24 0C37.2548 0 48 10.7452 48 24C48 37.2548 37.2548 48 24 48C10.7452 48 0 37.2548 0 24C0 10.7452 10.7452 0 24 0Z" fill="#6C5DD3" fill-opacity="0.2"/>
<path d="M24 0C37.2548 0 48 10.7452 48 24C48 37.2548 37.2548 48 24 48C10.7452 48 0 37.2548 0 24C0 10.7452 10.7452 0 24 0Z" stroke="#E5E7EB"/>
<path d="M31.5 38H16.5V10H31.5V38Z" stroke="#E5E7EB"/>
<g clip-path="url(#clip0_261_16952)">
<path d="M27.125 28.5C27.5 27.2539 28.2773 26.1914 29.0469 25.1328C29.25 24.8555 29.4531 24.5781 29.6484 24.2969C30.4219 23.1836 30.875 21.8359 30.875 20.3789C30.875 16.5781 27.7969 13.5 24 13.5C20.2031 13.5 17.125 16.5781 17.125 20.375C17.125 21.832 17.5781 23.1836 18.3516 24.293C18.5469 24.5742 18.75 24.8516 18.9531 25.1289C19.7266 26.1875 20.5039 27.2539 20.875 28.4961H27.125V28.5ZM24 33.5C25.7266 33.5 27.125 32.1016 27.125 30.375V29.75H20.875V30.375C20.875 32.1016 22.2734 33.5 24 33.5ZM20.875 20.375C20.875 20.7188 20.5938 21 20.25 21C19.9062 21 19.625 20.7188 19.625 20.375C19.625 17.957 21.582 16 24 16C24.3438 16 24.625 16.2812 24.625 16.625C24.625 16.9688 24.3438 17.25 24 17.25C22.2734 17.25 20.875 18.6484 20.875 20.375Z" fill="#6C5DD3"/>
</g>
<defs>
<clipPath id="clip0_261_16952">
<path d="M16.5 13.5H31.5V33.5H16.5V13.5Z" fill="white"/>
</clipPath>
</defs>
</svg>
