<svg width="27" height="25" viewBox="0 0 27 25" fill="none" xmlns="http://www.w3.org/2000/svg">
<g clip-path="url(#clip0_263_21031)">
<path d="M14.25 11.75V1.27813C14.25 0.85625 14.5781 0.5 15 0.5C20.7984 0.5 25.5 5.20156 25.5 11C25.5 11.4219 25.1438 11.75 24.7219 11.75H14.25ZM1.5 13.25C1.5 7.56406 5.72344 2.85781 11.2031 2.10781C11.6344 2.04688 12 2.39375 12 2.82969V14L19.3359 21.3359C19.65 21.65 19.6266 22.1656 19.2656 22.4188C17.4281 23.7313 15.1781 24.5 12.75 24.5C6.53906 24.5 1.5 19.4656 1.5 13.25ZM26.175 14C26.6109 14 26.9531 14.3656 26.8969 14.7969C26.5359 17.4172 25.275 19.7469 23.4328 21.4672C23.1516 21.7297 22.7109 21.7109 22.4391 21.4344L15 14H26.175Z" fill="#6C5DD3"/>
</g>
<defs>
<clipPath id="clip0_263_21031">
<path d="M0 0.5H27V24.5H0V0.5Z" fill="white"/>
</clipPath>
</defs>
</svg>
