<svg width="41" height="36" viewBox="0 0 41 36" fill="none" xmlns="http://www.w3.org/2000/svg">
<path d="M28.125 0H12.375C10.5117 0 8.99297 1.53281 9.06328 3.38906C9.07734 3.76172 9.09141 4.13438 9.1125 4.5H1.6875C0.752344 4.5 0 5.25234 0 6.1875C0 12.6984 2.35547 17.2266 5.51953 20.2992C8.63437 23.3297 12.4313 24.8555 15.2297 25.6289C16.875 26.0859 18 27.457 18 28.8352C18 30.3047 16.8047 31.5 15.3352 31.5H13.5C12.2555 31.5 11.25 32.5055 11.25 33.75C11.25 34.9945 12.2555 36 13.5 36H27C28.2445 36 29.25 34.9945 29.25 33.75C29.25 32.5055 28.2445 31.5 27 31.5H25.1648C23.6953 31.5 22.5 30.3047 22.5 28.8352C22.5 27.457 23.618 26.0789 25.2703 25.6289C28.0758 24.8555 31.8727 23.3297 34.9875 20.2992C38.1445 17.2266 40.5 12.6984 40.5 6.1875C40.5 5.25234 39.7477 4.5 38.8125 4.5H31.3875C31.4086 4.13438 31.4227 3.76875 31.4367 3.38906C31.507 1.53281 29.9883 0 28.125 0ZM3.43828 7.875H9.37266C10.0125 14.2102 11.4258 18.443 13.0219 21.2766C11.2711 20.5031 9.45 19.4133 7.875 17.8805C5.625 15.6938 3.79688 12.5367 3.44531 7.875H3.43828ZM32.632 17.8805C31.057 19.4133 29.2359 20.5031 27.4852 21.2766C29.0812 18.443 30.4945 14.2102 31.1344 7.875H37.0688C36.7102 12.5367 34.882 15.6938 32.6391 17.8805H32.632Z" fill="white"/>
</svg>
