<svg width="14" height="24" viewBox="0 0 14 24" fill="none" xmlns="http://www.w3.org/2000/svg">
<path d="M14 24H0V0H14V24Z" stroke="#E5E7EB"/>
<g clip-path="url(#clip0_486_126)">
<path d="M7.00312 8.40586C5.01562 8.40586 3.41249 10.009 3.41249 11.9965C3.41249 13.984 5.01562 15.5871 7.00312 15.5871C8.99062 15.5871 10.5937 13.984 10.5937 11.9965C10.5937 10.009 8.99062 8.40586 7.00312 8.40586ZM7.00312 14.3309C5.71874 14.3309 4.66874 13.284 4.66874 11.9965C4.66874 10.709 5.71562 9.66211 7.00312 9.66211C8.29062 9.66211 9.33749 10.709 9.33749 11.9965C9.33749 13.284 8.28749 14.3309 7.00312 14.3309ZM11.5781 8.25898C11.5781 8.72461 11.2031 9.09648 10.7406 9.09648C10.275 9.09648 9.90312 8.72148 9.90312 8.25898C9.90312 7.79648 10.2781 7.42148 10.7406 7.42148C11.2031 7.42148 11.5781 7.79648 11.5781 8.25898ZM13.9562 9.10898C13.9031 7.98711 13.6469 6.99336 12.825 6.17461C12.0062 5.35586 11.0125 5.09961 9.89062 5.04336C8.73437 4.97773 5.26874 4.97773 4.11249 5.04336C2.99374 5.09648 1.99999 5.35273 1.17812 6.17148C0.356244 6.99023 0.103119 7.98398 0.0468689 9.10586C-0.0187561 10.2621 -0.0187561 13.7277 0.0468689 14.884C0.0999939 16.0059 0.356244 16.9996 1.17812 17.8184C1.99999 18.6371 2.99062 18.8934 4.11249 18.9496C5.26874 19.0152 8.73437 19.0152 9.89062 18.9496C11.0125 18.8965 12.0062 18.6402 12.825 17.8184C13.6437 16.9996 13.9 16.0059 13.9562 14.884C14.0219 13.7277 14.0219 10.2652 13.9562 9.10898ZM12.4625 16.1246C12.2187 16.7371 11.7469 17.209 11.1312 17.4559C10.2094 17.8215 8.02187 17.7371 7.00312 17.7371C5.98437 17.7371 3.79374 17.8184 2.87499 17.4559C2.26249 17.2121 1.79062 16.7402 1.54374 16.1246C1.17812 15.2027 1.26249 13.0152 1.26249 11.9965C1.26249 10.9777 1.18124 8.78711 1.54374 7.86836C1.78749 7.25586 2.25937 6.78398 2.87499 6.53711C3.79687 6.17148 5.98437 6.25586 7.00312 6.25586C8.02187 6.25586 10.2125 6.17461 11.1312 6.53711C11.7437 6.78086 12.2156 7.25273 12.4625 7.86836C12.8281 8.79023 12.7437 10.9777 12.7437 11.9965C12.7437 13.0152 12.8281 15.2059 12.4625 16.1246Z" fill="#6C5DD3"/>
</g>
<defs>
<clipPath id="clip0_486_126">
<path d="M0 4H14V20H0V4Z" fill="white"/>
</clipPath>
</defs>
</svg>
