<svg width="14" height="24" viewBox="0 0 14 24" fill="none" xmlns="http://www.w3.org/2000/svg">
<path d="M14 24H0V0H14V24Z" stroke="#E5E7EB"/>
<path d="M14 20H0V4H14V20Z" stroke="#E5E7EB"/>
<path d="M13 5H0.996875C0.446875 5 0 5.45313 0 6.00938V17.9906C0 18.5469 0.446875 19 0.996875 19H13C13.55 19 14 18.5469 14 17.9906V6.00938C14 5.45313 13.55 5 13 5ZM4.23125 17H2.15625V10.3187H4.23438V17H4.23125ZM3.19375 9.40625C2.52812 9.40625 1.99063 8.86562 1.99063 8.20312C1.99063 7.54063 2.52812 7 3.19375 7C3.85625 7 4.39687 7.54063 4.39687 8.20312C4.39687 8.86875 3.85938 9.40625 3.19375 9.40625ZM12.0094 17H9.93437V13.75C9.93437 12.975 9.91875 11.9781 8.85625 11.9781C7.775 11.9781 7.60938 12.8219 7.60938 13.6938V17H5.53438V10.3187H7.525V11.2312H7.55312C7.83125 10.7062 8.50938 10.1531 9.51875 10.1531C11.6187 10.1531 12.0094 11.5375 12.0094 13.3375V17Z" fill="#6C5DD3"/>
</svg>
