<svg width="16" height="24" viewBox="0 0 16 24" fill="none" xmlns="http://www.w3.org/2000/svg">
<path d="M16 24H0V0H16V24Z" stroke="#E5E7EB"/>
<path d="M16 20H0V4H16V20Z" stroke="#E5E7EB"/>
<path d="M14.3553 8.74052C14.3655 8.88264 14.3655 9.0248 14.3655 9.16692C14.3655 13.5019 11.066 18.4969 5.03553 18.4969C3.17766 18.4969 1.45178 17.9588 0 17.0248C0.263969 17.0552 0.51775 17.0654 0.791875 17.0654C2.32484 17.0654 3.73603 16.5476 4.86294 15.6644C3.42131 15.6339 2.21319 14.6898 1.79694 13.3903C2 13.4207 2.20303 13.441 2.41625 13.441C2.71066 13.441 3.00509 13.4004 3.27919 13.3294C1.77666 13.0248 0.649719 11.705 0.649719 10.1111V10.0705C1.08625 10.3141 1.59391 10.4664 2.13194 10.4867C1.24869 9.89786 0.670031 8.8928 0.670031 7.75573C0.670031 7.14661 0.832438 6.58823 1.11672 6.10092C2.73094 8.09077 5.15734 9.39023 7.87813 9.53239C7.82738 9.28873 7.79691 9.03495 7.79691 8.78114C7.79691 6.97402 9.25884 5.50195 11.0761 5.50195C12.0203 5.50195 12.873 5.89789 13.472 6.53748C14.2131 6.39536 14.9238 6.12123 15.5533 5.74561C15.3096 6.50705 14.7918 7.14664 14.1116 7.5527C14.7715 7.48167 15.4111 7.29889 15.9999 7.04511C15.5533 7.69483 14.9949 8.27348 14.3553 8.74052Z" fill="#6C5DD3"/>
</svg>
