<svg width="18" height="32" viewBox="0 0 18 32" fill="none" xmlns="http://www.w3.org/2000/svg">
<path d="M18 32H0V0H18V32Z" stroke="#E5E7EB"/>
<g clip-path="url(#clip0_261_19469)">
<path d="M12.75 21C13.2 19.5047 14.1328 18.2297 15.0563 16.9594C15.3 16.6266 15.5438 16.2937 15.7781 15.9562C16.7063 14.6203 17.25 13.0031 17.25 11.2547C17.25 6.69375 13.5562 3 9 3C4.44375 3 0.75 6.69375 0.75 11.25C0.75 12.9984 1.29375 14.6203 2.22188 15.9516C2.45625 16.2891 2.7 16.6219 2.94375 16.9547C3.87187 18.225 4.80469 19.5047 5.25 20.9953H12.75V21ZM9 27C11.0719 27 12.75 25.3219 12.75 23.25V22.5H5.25V23.25C5.25 25.3219 6.92812 27 9 27ZM5.25 11.25C5.25 11.6625 4.9125 12 4.5 12C4.0875 12 3.75 11.6625 3.75 11.25C3.75 8.34844 6.09844 6 9 6C9.4125 6 9.75 6.3375 9.75 6.75C9.75 7.1625 9.4125 7.5 9 7.5C6.92812 7.5 5.25 9.17812 5.25 11.25Z" fill="#EAB308"/>
</g>
<defs>
<clipPath id="clip0_261_19469">
<path d="M0 3H18V27H0V3Z" fill="white"/>
</clipPath>
</defs>
</svg>
