<svg width="30" height="32" viewBox="0 0 30 32" fill="none" xmlns="http://www.w3.org/2000/svg">
<path d="M30 32H0V0H30V32Z" stroke="#E5E7EB"/>
<g clip-path="url(#clip0_261_19458)">
<path d="M15 3C15.8297 3 16.5 3.67031 16.5 4.5V7.5H22.125C23.9906 7.5 25.5 9.00938 25.5 10.875V23.625C25.5 25.4906 23.9906 27 22.125 27H7.875C6.00938 27 4.5 25.4906 4.5 23.625V10.875C4.5 9.00938 6.00938 7.5 7.875 7.5H13.5V4.5C13.5 3.67031 14.1703 3 15 3ZM9.75 21C9.3375 21 9 21.3375 9 21.75C9 22.1625 9.3375 22.5 9.75 22.5H11.25C11.6625 22.5 12 22.1625 12 21.75C12 21.3375 11.6625 21 11.25 21H9.75ZM14.25 21C13.8375 21 13.5 21.3375 13.5 21.75C13.5 22.1625 13.8375 22.5 14.25 22.5H15.75C16.1625 22.5 16.5 22.1625 16.5 21.75C16.5 21.3375 16.1625 21 15.75 21H14.25ZM18.75 21C18.3375 21 18 21.3375 18 21.75C18 22.1625 18.3375 22.5 18.75 22.5H20.25C20.6625 22.5 21 22.1625 21 21.75C21 21.3375 20.6625 21 20.25 21H18.75ZM12.375 15C12.375 14.5027 12.1775 14.0258 11.8258 13.6742C11.4742 13.3225 10.9973 13.125 10.5 13.125C10.0027 13.125 9.52581 13.3225 9.17418 13.6742C8.82254 14.0258 8.625 14.5027 8.625 15C8.625 15.4973 8.82254 15.9742 9.17418 16.3258C9.52581 16.6775 10.0027 16.875 10.5 16.875C10.9973 16.875 11.4742 16.6775 11.8258 16.3258C12.1775 15.9742 12.375 15.4973 12.375 15ZM19.5 16.875C19.9973 16.875 20.4742 16.6775 20.8258 16.3258C21.1775 15.9742 21.375 15.4973 21.375 15C21.375 14.5027 21.1775 14.0258 20.8258 13.6742C20.4742 13.3225 19.9973 13.125 19.5 13.125C19.0027 13.125 18.5258 13.3225 18.1742 13.6742C17.8225 14.0258 17.625 14.5027 17.625 15C17.625 15.4973 17.8225 15.9742 18.1742 16.3258C18.5258 16.6775 19.0027 16.875 19.5 16.875ZM2.25 13.5H3V22.5H2.25C1.00781 22.5 0 21.4922 0 20.25V15.75C0 14.5078 1.00781 13.5 2.25 13.5ZM27.75 13.5C28.9922 13.5 30 14.5078 30 15.75V20.25C30 21.4922 28.9922 22.5 27.75 22.5H27V13.5H27.75Z" fill="#6C5DD3"/>
</g>
<defs>
<clipPath id="clip0_261_19458">
<path d="M0 3H30V27H0V3Z" fill="white"/>
</clipPath>
</defs>
</svg>
