<svg width="23" height="19" viewBox="0 0 23 19" fill="none" xmlns="http://www.w3.org/2000/svg">
<g clip-path="url(#clip0_261_19552)">
<path d="M7.60936 12.625C11.6488 12.625 14.9219 9.85469 14.9219 6.4375C14.9219 3.02031 11.6488 0.25 7.60936 0.25C3.56991 0.25 0.296863 3.02031 0.296863 6.4375C0.296863 7.79453 0.81366 9.04961 1.68905 10.0727C1.566 10.4031 1.38319 10.6949 1.18983 10.941C1.02108 11.159 0.848816 11.3277 0.722254 11.4437C0.658972 11.5 0.606238 11.5457 0.571082 11.5738C0.553504 11.5879 0.539441 11.5984 0.53241 11.602L0.525379 11.609C0.332019 11.7531 0.247644 12.0062 0.324988 12.2348C0.402332 12.4633 0.616785 12.625 0.859363 12.625C1.62577 12.625 2.39921 12.4281 3.04257 12.1855C3.366 12.0625 3.66835 11.9254 3.93202 11.7848C5.01132 12.3191 6.26639 12.625 7.60936 12.625ZM16.0469 6.4375C16.0469 10.3855 12.5629 13.3598 8.43553 13.7148C9.28983 16.3305 12.1234 18.25 15.4844 18.25C16.8273 18.25 18.0824 17.9441 19.1652 17.4098C19.4289 17.5504 19.7277 17.6875 20.0512 17.8105C20.6945 18.0531 21.468 18.25 22.2344 18.25C22.4769 18.25 22.6949 18.0918 22.7687 17.8598C22.8426 17.6277 22.7617 17.3746 22.5648 17.2305L22.5578 17.2234C22.5508 17.2164 22.5367 17.2094 22.5191 17.1953C22.484 17.1672 22.4312 17.125 22.368 17.0652C22.2414 16.9492 22.0691 16.7805 21.9004 16.5625C21.707 16.3164 21.5242 16.0211 21.4012 15.6941C22.2766 14.6746 22.7933 13.4195 22.7933 12.059C22.7933 8.79648 19.8086 6.12109 16.0223 5.88906C16.0363 6.06836 16.0433 6.25117 16.0433 6.43398L16.0469 6.4375Z" fill="white"/>
</g>
<defs>
<clipPath id="clip0_261_19552">
<path d="M0.296875 0.25H22.7969V18.25H0.296875V0.25Z" fill="white"/>
</clipPath>
</defs>
</svg>
