<svg width="18" height="32" viewBox="0 0 18 32" fill="none" xmlns="http://www.w3.org/2000/svg">
<path d="M18 32H0V0H18V32Z" stroke="#E5E7EB"/>
<g clip-path="url(#clip0_261_19479)">
<path d="M0.75 6C0.75 4.34531 2.09531 3 3.75 3H14.25C15.9047 3 17.25 4.34531 17.25 6V24C17.25 25.6547 15.9047 27 14.25 27H3.75C2.09531 27 0.75 25.6547 0.75 24V6ZM10.5 24C10.5 23.6022 10.342 23.2206 10.0607 22.9393C9.77936 22.658 9.39782 22.5 9 22.5C8.60218 22.5 8.22064 22.658 7.93934 22.9393C7.65804 23.2206 7.5 23.6022 7.5 24C7.5 24.3978 7.65804 24.7794 7.93934 25.0607C8.22064 25.342 8.60218 25.5 9 25.5C9.39782 25.5 9.77936 25.342 10.0607 25.0607C10.342 24.7794 10.5 24.3978 10.5 24ZM14.25 6H3.75V21H14.25V6Z" fill="#3B82F6"/>
</g>
<defs>
<clipPath id="clip0_261_19479">
<path d="M0 3H18V27H0V3Z" fill="white"/>
</clipPath>
</defs>
</svg>
