<svg width="17" height="19" viewBox="0 0 17 19" fill="none" xmlns="http://www.w3.org/2000/svg">
<g clip-path="url(#clip0_261_19546)">
<path d="M1.00232 8.45518C0.562866 8.89463 0.562866 9.6083 1.00232 10.0478L6.62732 15.6728C7.06677 16.1122 7.78044 16.1122 8.2199 15.6728C8.65935 15.2333 8.65935 14.5196 8.2199 14.0802L4.51091 10.3747H15.2969C15.9191 10.3747 16.4219 9.87197 16.4219 9.24971C16.4219 8.62744 15.9191 8.12471 15.2969 8.12471H4.51443L8.21638 4.41924C8.65584 3.97978 8.65584 3.26611 8.21638 2.82666C7.77693 2.38721 7.06326 2.38721 6.6238 2.82666L0.998804 8.45166L1.00232 8.45518Z" fill="white"/>
</g>
<defs>
<clipPath id="clip0_261_19546">
<path d="M0.671875 0.25H16.4219V18.25H0.671875V0.25Z" fill="white"/>
</clipPath>
</defs>
</svg>
