<svg width="19" height="19" viewBox="0 0 19 19" fill="none" xmlns="http://www.w3.org/2000/svg">
<g clip-path="url(#clip0_261_19411)">
<path d="M6.42732 13.7818L5.34099 12.6954C5.04216 12.3966 4.93669 11.9642 5.07029 11.5634C5.17575 11.2505 5.31638 10.8427 5.48513 10.3751H1.7656C1.46325 10.3751 1.182 10.2134 1.03083 9.94973C0.879661 9.68606 0.883176 9.36262 1.03786 9.10246L2.88357 5.99113C3.3406 5.22121 4.16677 4.75012 5.05974 4.75012H7.9531C8.03747 4.60949 8.12185 4.47941 8.20622 4.35285C11.0855 0.105977 15.3746 -0.0346478 17.934 0.436446C18.3418 0.510274 18.6582 0.830196 18.7355 1.23801C19.2066 3.8009 19.0625 8.08645 14.8191 10.9657C14.6961 11.0501 14.5625 11.1345 14.4218 11.2189V14.1122C14.4218 15.0052 13.9508 15.8349 13.1808 16.2884L10.0695 18.1341C9.80935 18.2888 9.48591 18.2923 9.22224 18.1411C8.95857 17.99 8.79685 17.7122 8.79685 17.4064V13.6376C8.30115 13.8099 7.86872 13.9505 7.54177 14.056C7.14802 14.1825 6.71911 14.0736 6.4238 13.7818H6.42732ZM14.4218 6.15637C14.7948 6.15637 15.1525 6.00821 15.4162 5.74449C15.6799 5.48076 15.8281 5.12308 15.8281 4.75012C15.8281 4.37716 15.6799 4.01947 15.4162 3.75575C15.1525 3.49203 14.7948 3.34387 14.4218 3.34387C14.0489 3.34387 13.6912 3.49203 13.4275 3.75575C13.1638 4.01947 13.0156 4.37716 13.0156 4.75012C13.0156 5.12308 13.1638 5.48076 13.4275 5.74449C13.6912 6.00821 14.0489 6.15637 14.4218 6.15637Z" fill="white"/>
</g>
<defs>
<clipPath id="clip0_261_19411">
<path d="M0.921875 0.25H18.9219V18.25H0.921875V0.25Z" fill="white"/>
</clipPath>
</defs>
</svg>
