<svg width="10" height="11" viewBox="0 0 10 11" fill="none" xmlns="http://www.w3.org/2000/svg">
<path d="M0.29375 1.90586C-0.0968752 1.51523 -0.0968752 0.880859 0.29375 0.490234C0.684375 0.0996094 1.31875 0.0996094 1.70938 0.490234L5 3.78398L8.29375 0.493359C8.68438 0.102734 9.31875 0.102734 9.70938 0.493359C10.1 0.883984 10.1 1.51836 9.70938 1.90898L6.41563 5.19961L9.70625 8.49336C10.0969 8.88398 10.0969 9.51836 9.70625 9.90899C9.31563 10.2996 8.68125 10.2996 8.29063 9.90899L5 6.61523L1.70625 9.90586C1.31563 10.2965 0.68125 10.2965 0.290625 9.90586C-0.1 9.51523 -0.1 8.88086 0.290625 8.49023L3.58438 5.19961L0.29375 1.90586Z" fill="white"/>
</svg>
