<svg width="13" height="17" viewBox="0 0 13 17" fill="none" xmlns="http://www.w3.org/2000/svg">
<path d="M2.5 0.5C1.39688 0.5 0.5 1.39688 0.5 2.5V14.5C0.5 15.6031 1.39688 16.5 2.5 16.5H10.5C11.6031 16.5 12.5 15.6031 12.5 14.5V5.5H8.5C7.94688 5.5 7.5 5.05312 7.5 4.5V0.5H2.5ZM8.5 0.5V4.5H12.5L8.5 0.5ZM4 8.5H9C9.275 8.5 9.5 8.725 9.5 9C9.5 9.275 9.275 9.5 9 9.5H4C3.725 9.5 3.5 9.275 3.5 9C3.5 8.725 3.725 8.5 4 8.5ZM4 10.5H9C9.275 10.5 9.5 10.725 9.5 11C9.5 11.275 9.275 11.5 9 11.5H4C3.725 11.5 3.5 11.275 3.5 11C3.5 10.725 3.725 10.5 4 10.5ZM4 12.5H9C9.275 12.5 9.5 12.725 9.5 13C9.5 13.275 9.275 13.5 9 13.5H4C3.725 13.5 3.5 13.275 3.5 13C3.5 12.725 3.725 12.5 4 12.5Z" fill="#9333EA"/>
</svg>
