<svg width="17" height="17" viewBox="0 0 17 17" fill="none" xmlns="http://www.w3.org/2000/svg">
<g clip-path="url(#clip0_956_1042)">
<path d="M6.5 3.775C6.5 3.4875 6.31875 3.23438 6.0875 3.0625C5.725 2.79063 5.5 2.41562 5.5 2C5.5 1.17188 6.39687 0.5 7.5 0.5C8.60312 0.5 9.5 1.17188 9.5 2C9.5 2.41562 9.275 2.79063 8.9125 3.0625C8.68125 3.23438 8.5 3.4875 8.5 3.775C8.5 4.175 8.825 4.5 9.225 4.5H11C11.8281 4.5 12.5 5.17188 12.5 6V7.775C12.5 8.175 12.825 8.5 13.225 8.5C13.5125 8.5 13.7656 8.31875 13.9375 8.0875C14.2094 7.725 14.5844 7.5 15 7.5C15.8281 7.5 16.5 8.39687 16.5 9.5C16.5 10.6031 15.8281 11.5 15 11.5C14.5844 11.5 14.2094 11.275 13.9375 10.9125C13.7656 10.6813 13.5125 10.5 13.225 10.5C12.825 10.5 12.5 10.825 12.5 11.225V15C12.5 15.8281 11.8281 16.5 11 16.5H9.225C8.825 16.5 8.5 16.175 8.5 15.775C8.5 15.4875 8.68125 15.2344 8.9125 15.0625C9.275 14.7906 9.5 14.4156 9.5 14C9.5 13.1719 8.60312 12.5 7.5 12.5C6.39687 12.5 5.5 13.1719 5.5 14C5.5 14.4156 5.725 14.7906 6.0875 15.0625C6.31875 15.2344 6.5 15.4875 6.5 15.775C6.5 16.175 6.175 16.5 5.775 16.5H2C1.17188 16.5 0.5 15.8281 0.5 15V11.225C0.5 10.825 0.825 10.5 1.225 10.5C1.5125 10.5 1.76562 10.6813 1.9375 10.9125C2.20938 11.275 2.58437 11.5 3 11.5C3.82812 11.5 4.5 10.6031 4.5 9.5C4.5 8.39687 3.82812 7.5 3 7.5C2.58437 7.5 2.20938 7.725 1.9375 8.0875C1.76562 8.31875 1.5125 8.5 1.225 8.5C0.825 8.5 0.5 8.175 0.5 7.775V6C0.5 5.17188 1.17188 4.5 2 4.5H5.775C6.175 4.5 6.5 4.175 6.5 3.775Z" fill="#9333EA"/>
</g>
<defs>
<clipPath id="clip0_956_1042">
<path d="M0.5 0.5H16.5V16.5H0.5V0.5Z" fill="white"/>
</clipPath>
</defs>
</svg>
