<svg width="20" height="20" viewBox="0 0 20 20" fill="none" xmlns="http://www.w3.org/2000/svg">
<path d="M6.11328 17.3105L5.62109 18.4629C4.89062 18.0918 4.21875 17.6348 3.60938 17.0996L4.49609 16.2129C4.98438 16.6387 5.52734 17.0098 6.11328 17.3105ZM1.58594 10.4473H0.332031C0.386719 11.2754 0.542969 12.0762 0.789063 12.834L1.95312 12.3691C1.76172 11.7559 1.63281 11.1113 1.58594 10.4473ZM1.58594 9.19727C1.64062 8.46289 1.78906 7.75195 2.01953 7.08398L0.867188 6.5918C0.574219 7.41211 0.390625 8.28711 0.332031 9.19727H1.58594ZM2.51172 5.93555C2.81641 5.35352 3.18359 4.81055 3.60938 4.31445L2.72266 3.42773C2.1875 4.03711 1.72656 4.70898 1.35938 5.43945L2.51172 5.93555ZM15.5078 16.2129C14.9648 16.6816 14.3594 17.084 13.707 17.4004L14.1719 18.5645C14.9805 18.1777 15.7266 17.6816 16.3945 17.0957L15.5078 16.2129ZM4.49219 3.43164C5.03516 2.96289 5.64062 2.56055 6.29297 2.24414L5.82812 1.08008C5.01953 1.4668 4.27344 1.96289 3.60938 2.54883L4.49219 3.43164ZM17.4883 13.709C17.1836 14.291 16.8164 14.834 16.3906 15.3301L17.2773 16.2168C17.8125 15.6074 18.2734 14.9316 18.6406 14.2051L17.4883 13.709ZM18.4141 10.4473C18.3594 11.1816 18.2109 11.8926 17.9805 12.5605L19.1328 13.0527C19.4258 12.2285 19.6094 11.3535 19.6641 10.4434H18.4141V10.4473ZM12.5469 17.8691C11.9336 18.0645 11.2891 18.1895 10.625 18.2363V19.4902C11.4531 19.4355 12.2539 19.2793 13.0117 19.0332L12.5469 17.8691ZM9.375 18.2363C8.64062 18.1816 7.92969 18.0332 7.26172 17.8027L6.76953 18.9551C7.59375 19.248 8.46875 19.4316 9.37891 19.4863V18.2363H9.375ZM18.0469 7.27539C18.2422 7.88867 18.3672 8.5332 18.4141 9.19727H19.668C19.6133 8.36914 19.457 7.56836 19.2109 6.81055L18.0469 7.27539ZM3.60938 15.3301C3.14062 14.7871 2.73828 14.1816 2.42188 13.5293L1.25781 13.9941C1.64453 14.8027 2.14063 15.5488 2.72656 16.2168L3.60938 15.3301ZM10.625 1.4082C11.3594 1.46289 12.0664 1.61133 12.7383 1.8418L13.2305 0.689453C12.4102 0.396484 11.5352 0.212891 10.625 0.154297V1.4082ZM7.45312 1.77539C8.06641 1.58008 8.71094 1.45508 9.375 1.4082V0.154297C8.54688 0.208984 7.74609 0.365234 6.98828 0.611328L7.45312 1.77539ZM17.2773 3.42773L16.3906 4.31445C16.8594 4.85742 17.2617 5.46289 17.582 6.11523L18.7461 5.65039C18.3594 4.8418 17.8633 4.0957 17.2773 3.42773ZM15.5078 3.43164L16.3945 2.54492C15.7852 2.00977 15.1133 1.54883 14.3828 1.18164L13.8906 2.33398C14.4688 2.63867 15.0156 3.00586 15.5078 3.43164Z" fill="#EA580C"/>
</svg>
