<svg width="8" height="8" viewBox="0 0 8 8" fill="none" xmlns="http://www.w3.org/2000/svg">
<path d="M4.30075 8.00977H3.67574C3.41793 8.00977 3.20699 7.79883 3.20699 7.54102C3.20699 4.76758 6.23043 5.04492 6.23043 3.33008C6.23043 2.54883 5.53512 1.75977 3.98824 1.75977C2.85153 1.75977 2.25778 2.13477 1.67574 2.88086C1.5234 3.07617 1.24215 3.11523 1.04293 2.97461L0.531213 2.61523C0.312463 2.46289 0.261682 2.1543 0.429651 1.94336C1.25778 0.880859 2.24215 0.197266 3.99215 0.197266C6.03512 0.197266 7.79684 1.36133 7.79684 3.33008C7.79684 5.9707 4.7734 5.81055 4.7734 7.54102C4.76949 7.79883 4.55856 8.00977 4.30075 8.00977Z" fill="#EA580C"/>
</svg>
