<svg width="28" height="24" viewBox="0 0 28 24" fill="none" xmlns="http://www.w3.org/2000/svg">
<g clip-path="url(#clip0_263_20473)">
<path d="M3.5 1.5C1.84531 1.5 0.5 2.84531 0.5 4.5V6H27.5V4.5C27.5 2.84531 26.1547 1.5 24.5 1.5H3.5ZM27.5 10.5H0.5V19.5C0.5 21.1547 1.84531 22.5 3.5 22.5H24.5C26.1547 22.5 27.5 21.1547 27.5 19.5V10.5ZM5.75 16.5H8.75C9.1625 16.5 9.5 16.8375 9.5 17.25C9.5 17.6625 9.1625 18 8.75 18H5.75C5.3375 18 5 17.6625 5 17.25C5 16.8375 5.3375 16.5 5.75 16.5ZM11 17.25C11 16.8375 11.3375 16.5 11.75 16.5H17.75C18.1625 16.5 18.5 16.8375 18.5 17.25C18.5 17.6625 18.1625 18 17.75 18H11.75C11.3375 18 11 17.6625 11 17.25Z" fill="#6C5DD3"/>
</g>
<defs>
<clipPath id="clip0_263_20473">
<path d="M0.5 0H27.5V24H0.5V0Z" fill="white"/>
</clipPath>
</defs>
</svg>
