<svg width="17" height="16" viewBox="0 0 17 16" fill="none" xmlns="http://www.w3.org/2000/svg">
<g clip-path="url(#clip0_263_20346)">
<path d="M0.277962 1.71563C0.484212 1.27813 0.921712 1 1.40609 1H14.9061C15.3905 1 15.828 1.27813 16.0342 1.71563C16.2405 2.15313 16.178 2.66875 15.8717 3.04375L10.1561 10.0281V14C10.1561 14.3781 9.94359 14.725 9.60296 14.8938C9.26234 15.0625 8.85921 15.0281 8.55609 14.8L6.55609 13.3C6.30296 13.1125 6.15609 12.8156 6.15609 12.5V10.0281L0.437337 3.04063C0.134212 2.66875 0.0685867 2.15 0.277962 1.71563Z" fill="white"/>
</g>
<defs>
<clipPath id="clip0_263_20346">
<path d="M0.15625 0H16.1562V16H0.15625V0Z" fill="white"/>
</clipPath>
</defs>
</svg>
