<svg width="22" height="24" viewBox="0 0 22 24" fill="none" xmlns="http://www.w3.org/2000/svg">
<g clip-path="url(#clip0_263_20489)">
<path d="M6.5 0C7.32969 0 8 0.670312 8 1.5V3H14V1.5C14 0.670312 14.6703 0 15.5 0C16.3297 0 17 0.670312 17 1.5V3H19.25C20.4922 3 21.5 4.00781 21.5 5.25V7.5H0.5V5.25C0.5 4.00781 1.50781 3 2.75 3H5V1.5C5 0.670312 5.67031 0 6.5 0ZM0.5 9H21.5V21.75C21.5 22.9922 20.4922 24 19.25 24H2.75C1.50781 24 0.5 22.9922 0.5 21.75V9ZM4.25 12C3.8375 12 3.5 12.3375 3.5 12.75V17.25C3.5 17.6625 3.8375 18 4.25 18H8.75C9.1625 18 9.5 17.6625 9.5 17.25V12.75C9.5 12.3375 9.1625 12 8.75 12H4.25Z" fill="#00C48C"/>
</g>
<defs>
<clipPath id="clip0_263_20489">
<path d="M0.5 0H21.5V24H0.5V0Z" fill="white"/>
</clipPath>
</defs>
</svg>
