<svg width="28" height="24" viewBox="0 0 28 24" fill="none" xmlns="http://www.w3.org/2000/svg">
<g clip-path="url(#clip0_263_20504)">
<path d="M14.75 11.25V0.778125C14.75 0.35625 15.0781 0 15.5 0C21.2984 0 26 4.70156 26 10.5C26 10.9219 25.6438 11.25 25.2219 11.25H14.75ZM2 12.75C2 7.06406 6.22344 2.35781 11.7031 1.60781C12.1344 1.54688 12.5 1.89375 12.5 2.32969V13.5L19.8359 20.8359C20.15 21.15 20.1266 21.6656 19.7656 21.9188C17.9281 23.2313 15.6781 24 13.25 24C7.03906 24 2 18.9656 2 12.75ZM26.675 13.5C27.1109 13.5 27.4531 13.8656 27.3969 14.2969C27.0359 16.9172 25.775 19.2469 23.9328 20.9672C23.6516 21.2297 23.2109 21.2109 22.9391 20.9344L15.5 13.5H26.675Z" fill="#FF6B6B"/>
</g>
<defs>
<clipPath id="clip0_263_20504">
<path d="M0.5 0H27.5V24H0.5V0Z" fill="white"/>
</clipPath>
</defs>
</svg>
