<svg width="28" height="24" viewBox="0 0 28 24" fill="none" xmlns="http://www.w3.org/2000/svg">
<g clip-path="url(#clip0_263_20533)">
<path d="M19.25 4.5V4.53281C19.0016 4.51406 18.7531 4.5 18.5 4.5H12.5C11.7266 4.5 10.9766 4.59844 10.2594 4.78125C10.2547 4.6875 10.25 4.59375 10.25 4.5C10.25 2.01562 12.2656 0 14.75 0C17.2344 0 19.25 2.01562 19.25 4.5ZM18.5 6C18.6641 6 18.8281 6.00469 18.9875 6.01406C19.1844 6.02813 19.3813 6.04688 19.5781 6.075C20.4031 5.11406 21.6313 4.5 23 4.5H23.5391C24.0266 4.5 24.3828 4.95937 24.2656 5.43281L23.6188 8.02031C24.3594 8.71406 24.9641 9.55781 25.3766 10.5H26C26.8297 10.5 27.5 11.1703 27.5 12V16.5C27.5 17.3297 26.8297 18 26 18H24.5C24.0734 18.5672 23.5672 19.0734 23 19.5V22.5C23 23.3297 22.3297 24 21.5 24H20C19.1703 24 18.5 23.3297 18.5 22.5V21H12.5V22.5C12.5 23.3297 11.8297 24 11 24H9.5C8.67031 24 8 23.3297 8 22.5V19.5C6.36406 18.2719 5.24844 16.3922 5.0375 14.25H3.6875C1.925 14.25 0.5 12.825 0.5 11.0625C0.5 9.3 1.925 7.875 3.6875 7.875H3.875C4.49844 7.875 5 8.37656 5 9C5 9.62344 4.49844 10.125 3.875 10.125H3.6875C3.17188 10.125 2.75 10.5469 2.75 11.0625C2.75 11.5781 3.17188 12 3.6875 12H5.15C5.71719 9.19687 7.85469 6.96094 10.6016 6.24375C11.2063 6.08437 11.8438 6 12.5 6H18.5ZM21.5 12.375C21.5 12.0766 21.3815 11.7905 21.1705 11.5795C20.9595 11.3685 20.6734 11.25 20.375 11.25C20.0766 11.25 19.7905 11.3685 19.5795 11.5795C19.3685 11.7905 19.25 12.0766 19.25 12.375C19.25 12.6734 19.3685 12.9595 19.5795 13.1705C19.7905 13.3815 20.0766 13.5 20.375 13.5C20.6734 13.5 20.9595 13.3815 21.1705 13.1705C21.3815 12.9595 21.5 12.6734 21.5 12.375Z" fill="#A855F7"/>
</g>
<defs>
<clipPath id="clip0_263_20533">
<path d="M0.5 0H27.5V24H0.5V0Z" fill="white"/>
</clipPath>
</defs>
</svg>
