<svg width="30" height="31" viewBox="0 0 30 31" fill="none" xmlns="http://www.w3.org/2000/svg">
<g clip-path="url(#clip0_501_23146)">
<path d="M9.16211 26.9824L8.42383 28.7109C7.32812 28.1543 6.32031 27.4688 5.40625 26.666L6.73633 25.3359C7.46875 25.9746 8.2832 26.5312 9.16211 26.9824ZM2.37109 16.6875H0.490234C0.572266 17.9297 0.806641 19.1309 1.17578 20.2676L2.92188 19.5703C2.63477 18.6504 2.44141 17.6836 2.37109 16.6875ZM2.37109 14.8125C2.45312 13.7109 2.67578 12.6445 3.02148 11.6426L1.29297 10.9043C0.853516 12.1348 0.578125 13.4473 0.490234 14.8125H2.37109ZM3.75977 9.91992C4.2168 9.04688 4.76758 8.23242 5.40625 7.48828L4.07617 6.1582C3.27344 7.07227 2.58203 8.08008 2.03125 9.17578L3.75977 9.91992ZM23.2539 25.3359C22.4395 26.0391 21.5312 26.6426 20.5527 27.1172L21.25 28.8633C22.4629 28.2832 23.582 27.5391 24.584 26.6602L23.2539 25.3359ZM6.73047 6.16406C7.54492 5.46094 8.45313 4.85742 9.43164 4.38281L8.73438 2.63672C7.52148 3.2168 6.40234 3.96094 5.40625 4.83984L6.73047 6.16406ZM26.2246 21.5801C25.7676 22.4531 25.2168 23.2676 24.5781 24.0117L25.9082 25.3418C26.7109 24.4277 27.4023 23.4141 27.9531 22.3242L26.2246 21.5801ZM27.6133 16.6875C27.5312 17.7891 27.3086 18.8555 26.9629 19.8574L28.6914 20.5957C29.1309 19.3594 29.4062 18.0469 29.4883 16.6816H27.6133V16.6875ZM18.8125 27.8203C17.8926 28.1133 16.9258 28.3008 15.9297 28.3711V30.252C17.1719 30.1699 18.373 29.9355 19.5098 29.5664L18.8125 27.8203ZM14.0547 28.3711C12.9531 28.2891 11.8867 28.0664 10.8848 27.7207L10.1465 29.4492C11.3828 29.8887 12.6953 30.1641 14.0605 30.2461V28.3711H14.0547ZM27.0625 11.9297C27.3555 12.8496 27.543 13.8164 27.6133 14.8125H29.4941C29.4121 13.5703 29.1777 12.3691 28.8086 11.2324L27.0625 11.9297ZM5.40625 24.0117C4.70312 23.1973 4.09961 22.2891 3.625 21.3105L1.87891 22.0078C2.45898 23.2207 3.20313 24.3398 4.08203 25.3418L5.40625 24.0117ZM15.9297 3.12891C17.0312 3.21094 18.0918 3.43359 19.0996 3.7793L19.8379 2.05078C18.6074 1.61133 17.2949 1.33594 15.9297 1.24805V3.12891ZM11.1719 3.67969C12.0918 3.38672 13.0586 3.19922 14.0547 3.12891V1.24805C12.8125 1.33008 11.6113 1.56445 10.4746 1.93359L11.1719 3.67969ZM25.9082 6.1582L24.5781 7.48828C25.2812 8.30273 25.8848 9.21094 26.3652 10.1895L28.1113 9.49219C27.5312 8.2793 26.7871 7.16016 25.9082 6.1582ZM23.2539 6.16406L24.584 4.83398C23.6699 4.03125 22.6621 3.33984 21.5664 2.78906L20.8281 4.51758C21.6953 4.97461 22.5156 5.52539 23.2539 6.16406Z" fill="white"/>
<path d="M14.9922 23.7188C15.8983 23.7188 16.6328 22.9842 16.6328 22.0781C16.6328 21.172 15.8983 20.4375 14.9922 20.4375C14.0861 20.4375 13.3516 21.172 13.3516 22.0781C13.3516 22.9842 14.0861 23.7188 14.9922 23.7188Z" fill="white"/>
<path d="M15.4427 19.0312H14.5052C14.1185 19.0312 13.8021 18.7148 13.8021 18.3281C13.8021 14.168 18.3372 14.584 18.3372 12.0117C18.3372 10.8398 17.2943 9.65625 14.9739 9.65625C13.2689 9.65625 12.3782 10.2187 11.5052 11.3379C11.2767 11.6309 10.8548 11.6895 10.556 11.4785L9.7884 10.9395C9.46027 10.7109 9.3841 10.248 9.63605 9.93164C10.8782 8.33789 12.3548 7.3125 14.9798 7.3125C18.0443 7.3125 20.6868 9.05859 20.6868 12.0117C20.6868 15.9727 16.1517 15.7324 16.1517 18.3281C16.1458 18.7148 15.8294 19.0312 15.4427 19.0312Z" fill="white"/>
</g>
<defs>
<clipPath id="clip0_501_23146">
<path d="M-0.0078125 0.75H29.9922V30.75H-0.0078125V0.75Z" fill="white"/>
</clipPath>
</defs>
</svg>
