<svg width="25" height="25" viewBox="0 0 25 25" fill="none" xmlns="http://www.w3.org/2000/svg">
<path d="M24.6562 4.01953C24.6562 4.86328 23.9859 5.64141 22.8563 6.26953C21.4922 7.02422 19.4578 7.55859 17.1234 7.71797C16.95 7.63359 16.7766 7.55391 16.5938 7.48359C14.7469 6.71016 12.2906 6.26953 9.65625 6.26953C9.26719 6.26953 8.8875 6.27891 8.50781 6.29766L8.45625 6.26953C7.32656 5.64141 6.65625 4.86328 6.65625 4.01953C6.65625 1.94766 10.6875 0.269531 15.6562 0.269531C20.625 0.269531 24.6562 1.94766 24.6562 4.01953ZM8.18906 7.82109C8.66719 7.78828 9.15938 7.76953 9.65625 7.76953C12.5719 7.76953 15.1594 8.34609 16.8047 9.24141C17.9672 9.87422 18.6562 10.6617 18.6562 11.5195C18.6562 11.707 18.6234 11.8898 18.5578 12.068C18.3422 12.6867 17.7609 13.2539 16.9172 13.732C16.9125 13.7367 16.9031 13.7367 16.8984 13.7414C16.8844 13.7508 16.8703 13.7555 16.8563 13.7648C15.2156 14.6742 12.6 15.2648 9.65625 15.2648C6.8625 15.2648 4.36406 14.7352 2.70937 13.9008C2.62031 13.8586 2.53594 13.8117 2.45156 13.7648C1.32656 13.1414 0.65625 12.3633 0.65625 11.5195C0.65625 9.88828 3.15938 8.49609 6.65625 7.98516C7.14844 7.91484 7.65937 7.85859 8.18906 7.82109ZM20.1562 11.5195C20.1562 10.493 19.6594 9.64922 19.0266 9.01641C20.3531 8.81016 21.5672 8.48203 22.5984 8.05547C23.3625 7.73672 24.075 7.34297 24.6562 6.86016V8.51953C24.6562 9.42422 23.8828 10.2586 22.6031 10.9055C21.9188 11.2523 21.0844 11.5477 20.1469 11.7727C20.1516 11.6883 20.1562 11.6086 20.1562 11.5242V11.5195ZM18.6562 16.0195C18.6562 16.8633 17.9859 17.6414 16.8563 18.2695C16.7719 18.3164 16.6875 18.3586 16.5984 18.4055C14.9484 19.2398 12.45 19.7695 9.65625 19.7695C6.7125 19.7695 4.09688 19.1789 2.45625 18.2695C1.32656 17.6414 0.65625 16.8633 0.65625 16.0195V14.3602C1.24219 14.843 1.95 15.2367 2.71406 15.5555C4.56563 16.3289 7.02187 16.7695 9.65625 16.7695C12.2906 16.7695 14.7469 16.3289 16.5984 15.5555C16.9641 15.4055 17.3156 15.232 17.6484 15.0445C17.9344 14.8852 18.2016 14.707 18.4547 14.5195C18.525 14.468 18.5906 14.4117 18.6562 14.3602V14.5195V14.7867V16.0195ZM20.1562 16.0195V14.5195V13.3055C21.0469 13.1086 21.8672 12.8602 22.5984 12.5555C23.3625 12.2367 24.075 11.843 24.6562 11.3602V13.0195C24.6562 13.5117 24.4219 14.0039 23.9578 14.468C23.1938 15.232 21.8484 15.8602 20.1469 16.268C20.1516 16.1883 20.1562 16.1039 20.1562 16.0195ZM9.65625 21.2695C12.2906 21.2695 14.7469 20.8289 16.5984 20.0555C17.3625 19.7367 18.075 19.343 18.6562 18.8602V20.5195C18.6562 22.5914 14.625 24.2695 9.65625 24.2695C4.6875 24.2695 0.65625 22.5914 0.65625 20.5195V18.8602C1.24219 19.343 1.95 19.7367 2.71406 20.0555C4.56563 20.8289 7.02187 21.2695 9.65625 21.2695Z" fill="white"/>
</svg>
