<svg width="70" height="66" viewBox="0 0 70 66" fill="none" xmlns="http://www.w3.org/2000/svg">
<path d="M0.624609 4.92422C0.213281 4.40859 0 3.78984 0 3.17109C0 1.41797 1.67578 0 3.74766 0H20.3988C22.1051 0 23.7047 0.760547 24.573 1.99805L35.0086 16.7063C27.6656 17.4926 21.0996 20.393 16.2094 24.6855L0.624609 4.92422ZM77.3602 4.92422L61.7906 24.6855C56.9004 20.393 50.3344 17.4926 42.9914 16.7063L53.427 1.99805C54.3105 0.760547 55.8949 0 57.6012 0H74.2523C76.3242 0 78 1.41797 78 3.17109C78 3.78984 77.7867 4.40859 77.3754 4.92422H77.3602ZM12.1875 43.3125C12.1875 37.2954 15.0124 31.5247 20.0407 27.27C25.069 23.0153 31.8889 20.625 39 20.625C46.1111 20.625 52.931 23.0153 57.9593 27.27C62.9876 31.5247 65.8125 37.2954 65.8125 43.3125C65.8125 49.3296 62.9876 55.1003 57.9593 59.355C52.931 63.6097 46.1111 66 39 66C31.8889 66 25.069 63.6097 20.0407 59.355C15.0124 55.1003 12.1875 49.3296 12.1875 43.3125ZM40.2797 31.0793C39.7617 30.177 38.2535 30.177 37.7203 31.0793L34.3078 36.9316C34.0945 37.2926 33.6984 37.5375 33.2414 37.5891L25.5938 38.5301C24.4207 38.6719 23.9637 39.8836 24.8016 40.5926L30.3316 45.1559C30.6668 45.4394 30.8191 45.8262 30.743 46.2258L29.4328 52.6582C29.2348 53.6379 30.4535 54.3984 31.5047 53.9344L38.3297 50.8922C38.741 50.7117 39.2437 50.7117 39.6551 50.8922L46.4801 53.9344C47.5312 54.3984 48.75 53.6508 48.552 52.6582L47.2418 46.2258C47.1656 45.8391 47.318 45.4394 47.6531 45.1559L53.1832 40.5926C54.0363 39.8965 53.5641 38.6848 52.391 38.5301L44.7586 37.5891C44.3016 37.5375 43.8902 37.2797 43.6922 36.9316L40.2797 31.0793Z" fill="#FFE871"/>
</svg>
