<svg width="30" height="31" viewBox="0 0 30 31" fill="none" xmlns="http://www.w3.org/2000/svg">
<path d="M29.9922 2.625C29.9922 9.28125 25.0352 14.7832 18.6133 15.6328C18.1973 12.5039 16.8203 9.67969 14.7871 7.4707C17.0312 3.46289 21.3203 0.75 26.2422 0.75H28.1172C29.1543 0.75 29.9922 1.58789 29.9922 2.625ZM-0.0078125 6.375C-0.0078125 5.33789 0.830078 4.5 1.86719 4.5H3.74219C10.9902 4.5 16.8672 10.377 16.8672 17.625V19.5V28.875C16.8672 29.9121 16.0293 30.75 14.9922 30.75C13.9551 30.75 13.1172 29.9121 13.1172 28.875V19.5C5.86914 19.5 -0.0078125 13.623 -0.0078125 6.375Z" fill="white"/>
</svg>
