<svg width="34" height="27" viewBox="0 0 34 27" fill="none" xmlns="http://www.w3.org/2000/svg">
<path d="M18.2227 4.96094C18.8906 4.55078 19.3359 3.80664 19.3359 2.96875C19.3359 1.67383 18.2871 0.625 16.9922 0.625C15.6973 0.625 14.6484 1.67383 14.6484 2.96875C14.6484 3.8125 15.0938 4.55078 15.7617 4.96094L12.4043 11.6758C11.8711 12.7422 10.4883 13.0469 9.55664 12.3027L4.33594 8.125C4.62891 7.73242 4.80469 7.24609 4.80469 6.71875C4.80469 5.42383 3.75586 4.375 2.46094 4.375C1.16602 4.375 0.117188 5.42383 0.117188 6.71875C0.117188 8.01367 1.16602 9.0625 2.46094 9.0625C2.47266 9.0625 2.49023 9.0625 2.50195 9.0625L5.17969 23.793C5.50195 25.5742 7.05469 26.875 8.87109 26.875H25.1133C26.9238 26.875 28.4766 25.5801 28.8047 23.793L31.4824 9.0625C31.4941 9.0625 31.5117 9.0625 31.5234 9.0625C32.8184 9.0625 33.8672 8.01367 33.8672 6.71875C33.8672 5.42383 32.8184 4.375 31.5234 4.375C30.2285 4.375 29.1797 5.42383 29.1797 6.71875C29.1797 7.24609 29.3555 7.73242 29.6484 8.125L24.4277 12.3027C23.4961 13.0469 22.1133 12.7422 21.5801 11.6758L18.2227 4.96094Z" fill="white"/>
</svg>
