<svg width="28" height="31" viewBox="0 0 28 31" fill="none" xmlns="http://www.w3.org/2000/svg">
<path d="M10.2012 1.06593C10.6582 0.638199 11.3672 0.644058 11.8242 1.07179C13.4414 2.58937 14.959 4.22414 16.377 5.99367C17.0215 5.14992 17.7539 4.23 18.5449 3.48C19.0078 3.0464 19.7227 3.0464 20.1855 3.48585C22.2129 5.41945 23.9297 7.97414 25.1367 10.3999C26.3262 12.7905 27.1172 15.2339 27.1172 16.9566C27.1172 24.4331 21.2695 30.7495 13.9922 30.7495C6.63281 30.7495 0.867188 24.4273 0.867188 16.9507C0.867188 14.7007 1.91016 11.9527 3.52734 9.2339C5.16211 6.47414 7.4707 3.59718 10.2012 1.06593ZM14.0918 25.1245C15.5742 25.1245 16.8867 24.7144 18.123 23.8941C20.5898 22.1714 21.252 18.7261 19.7695 16.0191C19.5059 15.4917 18.832 15.4566 18.4512 15.9019L16.9746 17.6187C16.5879 18.064 15.8906 18.0523 15.5273 17.5894C14.5605 16.3589 12.832 14.1616 11.8477 12.9136C11.4785 12.4448 10.7754 12.439 10.4004 12.9077C8.41992 15.398 7.42383 16.9683 7.42383 18.7319C7.42969 22.7456 10.3945 25.1245 14.0918 25.1245Z" fill="white"/>
</svg>
