<svg width="25" height="24" viewBox="0 0 25 24" fill="none" xmlns="http://www.w3.org/2000/svg">
<path d="M18.1969 19.3359L5.64844 6.7875C4.59844 8.25469 3.98438 10.0547 3.98438 12C3.98438 16.9688 8.01562 21 12.9844 21C14.9297 21 16.7297 20.3859 18.1969 19.3359ZM20.3203 17.2125C21.3703 15.7453 21.9844 13.9453 21.9844 12C21.9844 7.03125 17.9531 3 12.9844 3C11.0391 3 9.23906 3.61406 7.77188 4.66406L20.3203 17.2125ZM0.984375 12C0.984375 8.8174 2.24866 5.76516 4.49909 3.51472C6.74953 1.26428 9.80178 0 12.9844 0C16.167 0 19.2192 1.26428 21.4697 3.51472C23.7201 5.76516 24.9844 8.8174 24.9844 12C24.9844 15.1826 23.7201 18.2348 21.4697 20.4853C19.2192 22.7357 16.167 24 12.9844 24C9.80178 24 6.74953 22.7357 4.49909 20.4853C2.24866 18.2348 0.984375 15.1826 0.984375 12Z" fill="white"/>
</svg>
