<svg width="13" height="16" viewBox="0 0 13 16" fill="none" xmlns="http://www.w3.org/2000/svg">
<path d="M10.34 1.39403C10.5243 0.965908 10.3868 0.465908 10.0087 0.190908C9.63059 -0.0840923 9.11497 -0.0590923 8.76184 0.247158L0.761842 7.24716C0.449342 7.52216 0.336842 7.96278 0.483717 8.35028C0.630592 8.73778 1.00559 9.00028 1.42122 9.00028H4.90559L2.50247 14.6065C2.31809 15.0347 2.45559 15.5347 2.83372 15.8097C3.21184 16.0847 3.72747 16.0597 4.08059 15.7534L12.0806 8.75341C12.3931 8.47841 12.5056 8.03778 12.3587 7.65028C12.2118 7.26278 11.84 7.00341 11.4212 7.00341H7.93684L10.34 1.39403Z" fill="white"/>
</svg>
