<svg width="15" height="16" viewBox="0 0 15 16" fill="none" xmlns="http://www.w3.org/2000/svg">
<g clip-path="url(#clip0_263_20869)">
<path d="M4.56875 0.553125L4.34375 1H1.34375C0.790625 1 0.34375 1.44687 0.34375 2C0.34375 2.55312 0.790625 3 1.34375 3H13.3438C13.8969 3 14.3438 2.55312 14.3438 2C14.3438 1.44687 13.8969 1 13.3438 1H10.3438L10.1187 0.553125C9.95 0.2125 9.60313 0 9.225 0H5.4625C5.08437 0 4.7375 0.2125 4.56875 0.553125ZM13.3438 4H1.34375L2.00625 14.5938C2.05625 15.3844 2.7125 16 3.50312 16H11.1844C11.975 16 12.6312 15.3844 12.6812 14.5938L13.3438 4Z" fill="#7B88A8"/>
</g>
<defs>
<clipPath id="clip0_263_20869">
<path d="M0.34375 0H14.3438V16H0.34375V0Z" fill="white"/>
</clipPath>
</defs>
</svg>
