<svg width="15" height="14" viewBox="0 0 15 14" fill="none" xmlns="http://www.w3.org/2000/svg">
<path d="M2.14062 0C1.0375 0 0.140625 0.896875 0.140625 2V12C0.140625 13.1031 1.0375 14 2.14062 14H12.1406C13.2437 14 14.1406 13.1031 14.1406 12V4.41563C14.1406 3.88438 13.9312 3.375 13.5562 3L11.1406 0.584375C10.7656 0.209375 10.2563 0 9.725 0H2.14062ZM2.14062 3C2.14062 2.44688 2.5875 2 3.14062 2H9.14062C9.69375 2 10.1406 2.44688 10.1406 3V5C10.1406 5.55312 9.69375 6 9.14062 6H3.14062C2.5875 6 2.14062 5.55312 2.14062 5V3ZM7.14062 8C7.67106 8 8.17977 8.21071 8.55484 8.58579C8.92991 8.96086 9.14062 9.46957 9.14062 10C9.14062 10.5304 8.92991 11.0391 8.55484 11.4142C8.17977 11.7893 7.67106 12 7.14062 12C6.61019 12 6.10148 11.7893 5.72641 11.4142C5.35134 11.0391 5.14062 10.5304 5.14062 10C5.14062 9.46957 5.35134 8.96086 5.72641 8.58579C6.10148 8.21071 6.61019 8 7.14062 8Z" fill="white"/>
</svg>
