<svg width="68" height="60" viewBox="0 0 68 60" fill="none" xmlns="http://www.w3.org/2000/svg">
<path d="M46.875 11.25V11.332C46.2539 11.2852 45.6328 11.25 45 11.25H30C28.0664 11.25 26.1914 11.4961 24.3984 11.9531C24.3867 11.7188 24.375 11.4844 24.375 11.25C24.375 5.03906 29.4141 0 35.625 0C41.8359 0 46.875 5.03906 46.875 11.25ZM45 15C45.4102 15 45.8203 15.0117 46.2188 15.0352C46.7109 15.0703 47.2031 15.1172 47.6953 15.1875C49.7578 12.7852 52.8281 11.25 56.25 11.25H57.5977C58.8164 11.25 59.707 12.3984 59.4141 13.582L57.7969 20.0508C59.6484 21.7852 61.1602 23.8945 62.1914 26.25H63.75C65.8242 26.25 67.5 27.9258 67.5 30V41.25C67.5 43.3242 65.8242 45 63.75 45H60C58.9336 46.418 57.668 47.6836 56.25 48.75V56.25C56.25 58.3242 54.5742 60 52.5 60H48.75C46.6758 60 45 58.3242 45 56.25V52.5H30V56.25C30 58.3242 28.3242 60 26.25 60H22.5C20.4258 60 18.75 58.3242 18.75 56.25V48.75C14.6602 45.6797 11.8711 40.9805 11.3438 35.625H7.96875C3.5625 35.625 0 32.0625 0 27.6562C0 23.25 3.5625 19.6875 7.96875 19.6875H8.4375C9.99609 19.6875 11.25 20.9414 11.25 22.5C11.25 24.0586 9.99609 25.3125 8.4375 25.3125H7.96875C6.67969 25.3125 5.625 26.3672 5.625 27.6562C5.625 28.9453 6.67969 30 7.96875 30H11.625C13.043 22.9922 18.3867 17.4023 25.2539 15.6094C26.7656 15.2109 28.3594 15 30 15H45ZM52.5 30.9375C52.5 30.1916 52.2037 29.4762 51.6762 28.9488C51.1488 28.4213 50.4334 28.125 49.6875 28.125C48.9416 28.125 48.2262 28.4213 47.6988 28.9488C47.1713 29.4762 46.875 30.1916 46.875 30.9375C46.875 31.6834 47.1713 32.3988 47.6988 32.9262C48.2262 33.4537 48.9416 33.75 49.6875 33.75C50.4334 33.75 51.1488 33.4537 51.6762 32.9262C52.2037 32.3988 52.5 31.6834 52.5 30.9375Z" fill="#2563EB"/>
</svg>
