<svg width="20" height="20" viewBox="0 0 20 20" fill="none" xmlns="http://www.w3.org/2000/svg">
<path d="M18.4219 0.84668C17.5664 -0.00878908 16.1836 -0.00878908 15.3281 0.84668L14.1523 2.01855L17.9766 5.84277L19.1523 4.66699C20.0078 3.81152 20.0078 2.42871 19.1523 1.57324L18.4219 0.84668ZM6.73438 9.44043C6.49609 9.67871 6.3125 9.97168 6.20703 10.2959L5.05078 13.7646C4.9375 14.1006 5.02734 14.4717 5.27734 14.7256C5.52734 14.9795 5.89844 15.0654 6.23828 14.9521L9.70703 13.7959C10.0273 13.6904 10.3203 13.5068 10.5625 13.2686L17.0977 6.72949L13.2695 2.90137L6.73438 9.44043ZM3.75 2.49902C1.67969 2.49902 0 4.17871 0 6.24902V16.249C0 18.3193 1.67969 19.999 3.75 19.999H13.75C15.8203 19.999 17.5 18.3193 17.5 16.249V12.499C17.5 11.8076 16.9414 11.249 16.25 11.249C15.5586 11.249 15 11.8076 15 12.499V16.249C15 16.9404 14.4414 17.499 13.75 17.499H3.75C3.05859 17.499 2.5 16.9404 2.5 16.249V6.24902C2.5 5.55762 3.05859 4.99902 3.75 4.99902H7.5C8.19141 4.99902 8.75 4.44043 8.75 3.74902C8.75 3.05762 8.19141 2.49902 7.5 2.49902H3.75Z" fill="#2563EB"/>
</svg>
