<svg width="19" height="15" viewBox="0 0 19 15" fill="none" xmlns="http://www.w3.org/2000/svg">
<path d="M9.49995 0.5C6.97495 0.5 4.95308 1.65 3.4812 3.01875C2.0187 4.375 1.04058 6 0.578076 7.11562C0.474951 7.3625 0.474951 7.6375 0.578076 7.88437C1.04058 9 2.0187 10.625 3.4812 11.9812C4.95308 13.35 6.97495 14.5 9.49995 14.5C12.025 14.5 14.0468 13.35 15.5187 11.9812C16.9812 10.6219 17.9593 9 18.4249 7.88437C18.5281 7.6375 18.5281 7.3625 18.4249 7.11562C17.9593 6 16.9812 4.375 15.5187 3.01875C14.0468 1.65 12.025 0.5 9.49995 0.5ZM4.99995 7.5C4.99995 6.30653 5.47406 5.16193 6.31797 4.31802C7.16188 3.47411 8.30648 3 9.49995 3C10.6934 3 11.838 3.47411 12.6819 4.31802C13.5258 5.16193 14 6.30653 14 7.5C14 8.69347 13.5258 9.83807 12.6819 10.682C11.838 11.5259 10.6934 12 9.49995 12C8.30648 12 7.16188 11.5259 6.31797 10.682C5.47406 9.83807 4.99995 8.69347 4.99995 7.5ZM9.49995 5.5C9.49995 6.60313 8.60308 7.5 7.49995 7.5C7.27808 7.5 7.06558 7.4625 6.86558 7.39687C6.6937 7.34062 6.4937 7.44688 6.49995 7.62813C6.50933 7.84375 6.54058 8.05937 6.59995 8.275C7.02808 9.875 8.67495 10.825 10.275 10.3969C11.875 9.96875 12.825 8.32188 12.3968 6.72188C12.05 5.425 10.9031 4.55312 9.62808 4.5C9.44683 4.49375 9.34058 4.69062 9.39683 4.86562C9.46245 5.06562 9.49995 5.27812 9.49995 5.5Z" fill="#7B88A8"/>
</svg>
