<svg width="17" height="17" viewBox="0 0 17 17" fill="none" xmlns="http://www.w3.org/2000/svg">
<g clip-path="url(#clip0_262_19662)">
<path d="M2 2.5C1.17188 2.5 0.5 3.17188 0.5 4C0.5 4.47187 0.721875 4.91562 1.1 5.2L7.9 10.3C8.25625 10.5656 8.74375 10.5656 9.1 10.3L15.9 5.2C16.2781 4.91562 16.5 4.47187 16.5 4C16.5 3.17188 15.8281 2.5 15 2.5H2ZM0.5 6V12.5C0.5 13.6031 1.39688 14.5 2.5 14.5H14.5C15.6031 14.5 16.5 13.6031 16.5 12.5V6L9.7 11.1C8.9875 11.6344 8.0125 11.6344 7.3 11.1L0.5 6Z" fill="#7B88A8"/>
</g>
<defs>
<clipPath id="clip0_262_19662">
<path d="M0.5 0.5H16.5V16.5H0.5V0.5Z" fill="white"/>
</clipPath>
</defs>
</svg>
