<svg width="15" height="17" viewBox="0 0 15 17" fill="none" xmlns="http://www.w3.org/2000/svg">
<g clip-path="url(#clip0_262_19643)">
<g clip-path="url(#clip1_262_19643)">
<path d="M5 5V6.5H10V5C10 3.61875 8.88125 2.5 7.5 2.5C6.11875 2.5 5 3.61875 5 5ZM3 6.5V5C3 2.51562 5.01562 0.5 7.5 0.5C9.98438 0.5 12 2.51562 12 5V6.5H12.5C13.6031 6.5 14.5 7.39687 14.5 8.5V14.5C14.5 15.6031 13.6031 16.5 12.5 16.5H2.5C1.39688 16.5 0.5 15.6031 0.5 14.5V8.5C0.5 7.39687 1.39688 6.5 2.5 6.5H3Z" fill="#7B88A8"/>
</g>
</g>
<defs>
<clipPath id="clip0_262_19643">
<rect width="14" height="16" fill="white" transform="translate(0.5 0.5)"/>
</clipPath>
<clipPath id="clip1_262_19643">
<path d="M0.5 0.5H14.5V16.5H0.5V0.5Z" fill="white"/>
</clipPath>
</defs>
</svg>
